/* XPM */
static char * architect_16_xpm[] = {
"16 16 96 2",
"  	c None",
". 	c #4E6497",
"+ 	c #132F74",
"@ 	c #153276",
"# 	c #344C88",
"$ 	c #465C92",
"% 	c #314A86",
"& 	c #5F7CA9",
"* 	c #5A78A6",
"= 	c #5A79A7",
"- 	c #8494B8",
"; 	c #8696B8",
"> 	c #3A538C",
", 	c #294382",
"' 	c #586C9D",
") 	c #C6DAE8",
"! 	c #5A94BC",
"~ 	c #4F8DB7",
"{ 	c #5290B9",
"] 	c #F5F8FB",
"^ 	c #FCFDFE",
"/ 	c #F5F9FC",
"( 	c #95BAD4",
"_ 	c #5A73A2",
": 	c #2A4382",
"< 	c #FBFCFE",
"[ 	c #5490B9",
"} 	c #FAFCFD",
"| 	c #96BBD4",
"1 	c #518EB8",
"2 	c #2A4482",
"3 	c #C5DAE8",
"4 	c #F6F9FC",
"5 	c #96BBD5",
"6 	c #C4D9E8",
"7 	c #2B4482",
"8 	c #C3D8E7",
"9 	c #5D96BE",
"0 	c #EFF5F9",
"a 	c #98BCD6",
"b 	c #2B4582",
"c 	c #F6FAFC",
"d 	c #C0D7E6",
"e 	c #ABC9DE",
"f 	c #6A9FC3",
"g 	c #689EC2",
"h 	c #5D75A4",
"i 	c #2C4683",
"j 	c #3A5188",
"k 	c #52699B",
"l 	c #5792BA",
"m 	c #A4C4DA",
"n 	c #9FC2D9",
"o 	c #F3F7FA",
"p 	c #7082AC",
"q 	c #2D4684",
"r 	c #3A5088",
"s 	c #5591BA",
"t 	c #9EC0D8",
"u 	c #F7FAFC",
"v 	c #649BC0",
"w 	c #8BB4D0",
"x 	c #F9FBFD",
"y 	c #528FB8",
"z 	c #9EC1D8",
"A 	c #FBFDFE",
"B 	c #649AC0",
"C 	c #8CB5D0",
"D 	c #9DC0D8",
"E 	c #508EB8",
"F 	c #8DB5D1",
"G 	c #5893BB",
"H 	c #9CBFD7",
"I 	c #8EB6D1",
"J 	c #F3F8FA",
"K 	c #A2C3DA",
"L 	c #669CC1",
"M 	c #5390B9",
"N 	c #91B8D3",
"O 	c #6E80AA",
"P 	c #1F3A7C",
"Q 	c #4E6498",
"R 	c #4F6598",
"S 	c #486095",
"T 	c #465F95",
"U 	c #264080",
"V 	c #6D7EA6",
"W 	c #4C6296",
"X 	c #3D528C",
"Y 	c #3C518B",
"Z 	c #3E528D",
"` 	c #3F548E",
" .	c #41568F",
"..	c #425890",
"+.	c #445991",
"@.	c #6072A1",
". + + + + + + + @ @ @ @ @ @ @ # ",
"$ % & * * * * = - ; ; ; ; - > , ",
"$ ' ) ! ~ ~ ~ { ] ^ ^ ^ / ( _ : ",
"$ ' < ) [ ~ ~ { ] ^ ^ } | 1 _ 2 ",
"$ ' ^ ^ 3 ! ~ { ] ^ 4 5 ~ ~ _ 2 ",
"$ ' ^ ^ < 6 [ { ] < 5 1 ~ ~ _ 7 ",
"$ ' ^ ^ ^ ^ 8 9 0 a ~ ~ ~ ~ _ b ",
"$ ' c c c c / d e f g g g g h i ",
"j k ! [ [ [ l m n o ^ ^ ^ ^ p q ",
"r k s ~ ~ ~ t u v w x ^ ^ ^ p q ",
"r k s ~ y z A ^ B ~ C o ^ ^ p q ",
"r k s ~ D u ^ ^ B ~ E F x ^ p q ",
"r k G H < ^ ^ ^ B ~ ~ ~ I J p q ",
"r k K u ^ ^ ^ ^ L y y y M N O q ",
"r P Q R R R R R S T T T T T U q ",
"V W W W W W W W X Y Z `  ...+.@."};
