/* XPM */
static char * architect_xpm[] = {
"32 32 179 2",
"  	c None",
". 	c #8F9DBD",
"+ 	c #1E3879",
"@ 	c #223D7D",
"# 	c #5D709F",
"$ 	c #8393B7",
"% 	c #08266E",
"& 	c #4A5F94",
"* 	c #243E7E",
"= 	c #334C87",
"- 	c #294381",
"; 	c #0B2970",
"> 	c #4A5F95",
", 	c #909EBE",
"' 	c #95B3CF",
") 	c #80A5C6",
"! 	c #84A8C8",
"~ 	c #D2DAE7",
"{ 	c #D9DFEA",
"] 	c #D3DAE7",
"^ 	c #9DACC9",
"/ 	c #183477",
"( 	c #4B6095",
"_ 	c #A7B2CC",
": 	c #DAE7F0",
"< 	c #75A6C7",
"[ 	c #518FB8",
"} 	c #4F8DB7",
"| 	c #5692BB",
"1 	c #EEF4F8",
"2 	c #FCFDFE",
"3 	c #FBFCFE",
"4 	c #E8F0F6",
"5 	c #87B2CF",
"6 	c #98B0CC",
"7 	c #1B3679",
"8 	c #FAFCFD",
"9 	c #D0E1EC",
"0 	c #77A7C8",
"a 	c #528FB8",
"b 	c #FBFDFE",
"c 	c #E3EDF4",
"d 	c #90B7D2",
"e 	c #5591BA",
"f 	c #4C6096",
"g 	c #F9FBFD",
"h 	c #D0E1ED",
"i 	c #74A5C7",
"j 	c #8FB6D2",
"k 	c #5792BA",
"l 	c #4C6196",
"m 	c #D9E6F0",
"n 	c #629ABF",
"o 	c #F6F9FB",
"p 	c #8CB5D1",
"q 	c #5591B9",
"r 	c #4D6196",
"s 	c #D7E6EF",
"t 	c #73A5C6",
"u 	c #8BB4D1",
"v 	c #4D6296",
"w 	c #76A7C7",
"x 	c #E4EEF5",
"y 	c #90B8D3",
"z 	c #CEE0EC",
"A 	c #72A4C6",
"B 	c #91B8D3",
"C 	c #5793BB",
"D 	c #4E6297",
"E 	c #D6E5EF",
"F 	c #639ABF",
"G 	c #F7FAFC",
"H 	c #4E6397",
"I 	c #70A3C5",
"J 	c #E9F1F7",
"K 	c #8FB7D2",
"L 	c #CDDFEB",
"M 	c #5993BC",
"N 	c #E5EEF5",
"O 	c #92B8D3",
"P 	c #4E6497",
"Q 	c #F8FBFD",
"R 	c #CEDFEC",
"S 	c #DCE8F1",
"T 	c #93B9D3",
"U 	c #5892BB",
"V 	c #4F6498",
"W 	c #F1F6FA",
"X 	c #F0F6FA",
"Y 	c #EDF4F9",
"Z 	c #CFE1ED",
"` 	c #B6D1E3",
" .	c #81AECD",
"..	c #A5B9D1",
"+.	c #506699",
"@.	c #6D7DA3",
"#.	c #9DACC8",
"$.	c #649BC0",
"%.	c #5993BB",
"&.	c #6199BE",
"*.	c #A5C5DB",
"=.	c #A1C4DB",
"-.	c #DDEAF2",
";.	c #C5CDDE",
">.	c #526799",
",.	c #6B7BA1",
"'.	c #5B95BD",
").	c #5B95BC",
"!.	c #9CBFD7",
"~.	c #7BAACA",
"{.	c #82AECD",
"].	c #DBE7F1",
"^.	c #5893BB",
"/.	c #78A8C9",
"(.	c #5390B9",
"_.	c #82AECC",
":.	c #DEEAF2",
"<.	c #508DB7",
"[.	c #96BCD5",
"}.	c #EDF4F8",
"|.	c #538FB9",
"1.	c #7AA9C9",
"2.	c #5893BA",
"3.	c #99BED6",
"4.	c #F9FCFD",
"5.	c #DFEAF2",
"6.	c #5994BB",
"7.	c #9BBFD7",
"8.	c #ECF3F8",
"9.	c #83AFCD",
"0.	c #9ABED7",
"a.	c #E9F1F6",
"b.	c #5490B9",
"c.	c #84B0CD",
"d.	c #DFEAF3",
"e.	c #97BCD6",
"f.	c #ECF3F7",
"g.	c #7DACCB",
"h.	c #EFF5F9",
"i.	c #94BAD4",
"j.	c #7DABCA",
"k.	c #E2ECF4",
"l.	c #99BDD6",
"m.	c #84B0CE",
"n.	c #DCE9F1",
"o.	c #629AC0",
"p.	c #98BCD6",
"q.	c #5491B9",
"r.	c #A2C3DA",
"s.	c #EBF2F8",
"t.	c #7CACCB",
"u.	c #5994BC",
"v.	c #85B0CE",
"w.	c #BCC7DA",
"x.	c #6477A4",
"y.	c #94A2C1",
"z.	c #96A4C2",
"A.	c #899BBD",
"B.	c #8598BC",
"C.	c #7385AE",
"D.	c #133074",
"E.	c #B1B8CA",
"F.	c #919EBF",
"G.	c #7885AE",
"H.	c #6D79A7",
"I.	c #6F7BA8",
"J.	c #717DA9",
"K.	c #737EAB",
"L.	c #7480AC",
"M.	c #7682AD",
"N.	c #7783AE",
"O.	c #7985AF",
"P.	c #7A87B0",
"Q.	c #7C88B1",
"R.	c #7D8AB2",
"S.	c #7F8BB3",
"T.	c #808DB4",
"U.	c #818EB4",
"V.	c #A4ADC9",
". + + + + + + + + + + + + + + + @ @ @ @ @ @ @ @ @ @ @ @ @ @ @ # ",
"$ % % % % % % % % % % % % % % % % % % % % % % % % % % % % % % & ",
"$ % % * = = = = = = = = = = = = = = = = = = = = = = = = - ; % > ",
"$ % % , ' ) ) ) ) ) ) ) ) ) ) ! ~ { { { { { { { { { { ] ^ / % ( ",
"$ % % _ : < [ } } } } } } } } | 1 2 2 2 2 2 2 2 2 3 4 5 6 7 % ( ",
"$ % % _ 8 9 0 a } } } } } } } | 1 2 2 2 2 2 2 2 b c d e 6 7 % f ",
"$ % % _ 2 g h i } } } } } } } | 1 2 2 2 2 2 2 2 4 j k } 6 7 % l ",
"$ % % _ 2 2 8 m n } } } } } } | 1 2 2 2 2 2 2 o p q } } 6 7 % r ",
"$ % % _ 2 2 2 2 s t a } } } } | 1 2 2 2 2 b 4 u } } } } 6 7 % v ",
"$ % % _ 2 2 2 2 g 9 w [ } } } | 1 2 2 2 b x y e } } } } 6 7 % v ",
"$ % % _ 2 2 2 2 2 g z A } } } | 1 2 2 2 4 B C } } } } } 6 7 % D ",
"$ % % _ 2 2 2 2 2 2 g E F } } | 1 2 2 G u e } } } } } } 6 7 % H ",
"$ % % _ 2 2 2 2 2 2 2 2 E I [ | 1 b J K } } } } } } } } 6 7 % H ",
"$ % % _ 2 2 2 2 2 2 2 2 g L < M 1 N O e } } } } } } } } 6 7 % P ",
"$ % % _ 2 2 2 2 2 2 2 2 2 Q R 0 S T U } } } } } } } } } 6 7 % V ",
"$ % % _ W X X X X X X X X X Y Z ` 5  . . . . . . . . . ...7 % +.",
"@.% % #.$.%.%.%.%.%.%.%.%.%.&.*.=.-.8 2 2 2 2 2 2 2 2 2 ;.7 % >.",
",.% % #.'.} } } } } } } } ).!.1 ~.{.].8 2 2 2 2 2 2 2 2 ;.7 % >.",
",.% % #.'.} } } } } } } ^.!.J 2 /.(._.:.2 2 2 2 2 2 2 2 ;.7 % >.",
",.% % #.'.} } } } } } <.[.}.2 2 /.} |.1.X 2 2 2 2 2 2 2 ;.7 % >.",
",.% % #.'.} } } } } 2.3.4.2 2 2 /.} } } ~.5.8 2 2 2 2 2 ;.7 % >.",
",.% % #.'.} } } } 6.7.8.2 2 2 2 /.} } } (.9.S 3 2 2 2 2 ;.7 % >.",
",.% % #.'.} } } k 0.a.2 2 2 2 2 /.} } } } b.c.d.2 2 2 2 ;.7 % >.",
",.% % #.'.} } } e.f.2 2 2 2 2 2 /.} } } } } |.g.h.2 2 2 ;.7 % >.",
",.% % #.'.} k i.g 2 2 2 2 2 2 2 /.} } } } } } } j.k.8 2 ;.7 % >.",
",.% % #.'.6.l.8.2 2 2 2 2 2 2 2 /.} } } } } } } (.m.n.8 ;.7 % >.",
",.% % #.o.p.4 b 2 2 2 2 2 2 2 2 /.} } } } } } } } q.m.k.;.7 % >.",
",.% % #.r.s.2 2 2 2 2 2 2 2 2 2 t.e e e e e e e e e u.v.w.7 % >.",
",.% % x.y.z.z.z.z.z.z.z.z.z.z.z.A.B.B.B.B.B.B.B.B.B.B.B.C.D.% >.",
",.% % % % % % % % % % % % % % % % % % % % % % % % % % % % % % >.",
",.% % % % % % % % % % % % % % % % % % % % % % % % % % % % % % >.",
"E.F.F.F.F.F.F.F.F.F.F.F.F.F.F.F.G.H.I.J.K.L.M.N.O.P.Q.R.S.T.U.V."};
