/* XPM */
static char * excel_16_xpm[] = {
"16 16 71 1",
" 	c #3D9026",
".	c #217D16",
"+	c #207D18",
"@	c #3D9028",
"#	c #217D17",
"$	c #127112",
"%	c #429044",
"&	c #419043",
"*	c #419044",
"=	c #117112",
"-	c #227D16",
";	c #FFFFFF",
">	c #419046",
",	c #419041",
"'	c #C8DEC8",
")	c #9EC8A0",
"!	c #9FC89F",
"~	c #D0E4D1",
"{	c #FBFDFA",
"]	c #B6D2B7",
"^	c #B5D0B5",
"/	c #B4D0B5",
"(	c #F8FBF8",
"_	c #80B480",
":	c #449145",
"<	c #006600",
"[	c #107010",
"}	c #C6DEC7",
"|	c #5F9E60",
"1	c #1B751A",
"2	c #EEF6EF",
"3	c #FCFEFC",
"4	c #80B481",
"5	c #47924A",
"6	c #046804",
"7	c #0D6E0D",
"8	c #CEE2CD",
"9	c #FEFEFE",
"0	c #8EBD8F",
"a	c #469047",
"b	c #B5D4B4",
"c	c #FDFEFD",
"d	c #67A367",
"e	c #207A21",
"f	c #449244",
"g	c #0B6D0B",
"h	c #579958",
"i	c #E4F0E4",
"j	c #68A569",
"k	c #227B22",
"l	c #459146",
"m	c #1B761B",
"n	c #F0F6F0",
"o	c #86B687",
"p	c #247B23",
"q	c #1F791E",
"r	c #207A20",
"s	c #D6E7D6",
"t	c #D4E5D5",
"u	c #BAD6BA",
"v	c #B8D6B8",
"w	c #79AE7A",
"x	c #4A9348",
"y	c #8EBC90",
"z	c #FEFFFF",
"A	c #429045",
"B	c #217D18",
"C	c #127212",
"D	c #227D17",
"E	c #3E9027",
"F	c #3E9026",
" .++++++++++++.@",
"#$%&*&*&*&*&*&=-",
"+%;;;;;;;;;;;;%+",
"+>;;;;;;;;;;;;,+",
"+>;')!~;{]^/(;,+",
"+>;_:<[}|<<12;,+",
"+>;345<6<<78;;,+",
"+>;;90a<<6b;;;,+",
"+>;;cdef<ghhi;,+",
"+>;cj<<kl<<mn;,+",
"+>;o<<<<pq<rs;,+",
"+>;tuuuuvwx,y;,+",
"+>;;;;;;;;z;;;,+",
"+%;;;;;;;;;;;;A+",
"BC*&*&*&*&*&*ACD",
"ED++++++++++++BF"};
