/* XPM */
static char * excel_xpm[] = {
"32 32 150 2",
"  	c #6CB03F",
". 	c #46942D",
"+ 	c #44942B",
"@ 	c #41942F",
"# 	c #43942A",
"$ 	c #41942E",
"% 	c #6FB042",
"& 	c #43942D",
"* 	c #006600",
"= 	c #45942E",
"- 	c #43942C",
"; 	c #46942A",
"> 	c #40942F",
", 	c #479349",
"' 	c #84BA87",
") 	c #82BA8A",
"! 	c #82BA86",
"~ 	c #82B986",
"{ 	c #82BA87",
"] 	c #82BA83",
"^ 	c #449347",
"/ 	c #42942F",
"( 	c #FFFFFF",
"_ 	c #FFFFFE",
": 	c #84BA84",
"< 	c #86BA8A",
"[ 	c #82BA8B",
"} 	c #82BA82",
"| 	c #FEFEFE",
"1 	c #E3ECE2",
"2 	c #3E903E",
"3 	c #3E9044",
"4 	c #3C903E",
"5 	c #3D903D",
"6 	c #409042",
"7 	c #589D5A",
"8 	c #ECF4ED",
"9 	c #EEF6EC",
"0 	c #71A973",
"a 	c #6AA26B",
"b 	c #6BA26B",
"c 	c #67A26B",
"d 	c #E4F0E4",
"e 	c #BBDABE",
"f 	c #0A6D0C",
"g 	c #4A9448",
"h 	c #006601",
"i 	c #429042",
"j 	c #F6F9F6",
"k 	c #FDFFFE",
"l 	c #F1F8F1",
"m 	c #468E46",
"n 	c #016601",
"o 	c #BBDABF",
"p 	c #F4FAF4",
"q 	c #468E44",
"r 	c #73AE75",
"s 	c #559B56",
"t 	c #E3F2E7",
"u 	c #6BA269",
"v 	c #FEFFFE",
"w 	c #F5FAF3",
"x 	c #469046",
"y 	c #6EAE75",
"z 	c #519856",
"A 	c #0E6D10",
"B 	c #4E964D",
"C 	c #F8FDF8",
"D 	c #FEFFFF",
"E 	c #F6FAF4",
"F 	c #559755",
"G 	c #7AB07D",
"H 	c #509952",
"I 	c #338433",
"J 	c #F3F7F0",
"K 	c #FAFDFC",
"L 	c #5A9E5C",
"M 	c #7AB27D",
"N 	c #529550",
"O 	c #1F791E",
"P 	c #E0F0E1",
"Q 	c #FAFDFA",
"R 	c #6AA668",
"S 	c #7AB27F",
"T 	c #4D954C",
"U 	c #117012",
"V 	c #D5E6D4",
"W 	c #F8FAF6",
"X 	c #519651",
"Y 	c #026602",
"Z 	c #7EB47E",
"` 	c #4A964B",
" .	c #2C812C",
"..	c #ACCCB0",
"+.	c #AFCCAE",
"@.	c #B0CCB0",
"#.	c #ADCCB0",
"$.	c #EBF3EB",
"%.	c #F8FCF8",
"&.	c #539654",
"*.	c #026703",
"=.	c #7DB57C",
"-.	c #489648",
";.	c #A7D0A8",
">.	c #F8FAF8",
",.	c #509650",
"'.	c #026803",
").	c #80B881",
"!.	c #4C924C",
"~.	c #C2DCC3",
"{.	c #056705",
"].	c #81B982",
"^.	c #48934B",
"/.	c #6BA66B",
"(.	c #FAFCFA",
"_.	c #5D9E5A",
":.	c #066703",
"<.	c #86B886",
"[.	c #448F42",
"}.	c #80B57E",
"|.	c #FCFEFC",
"1.	c #BED9C6",
"2.	c #046803",
"3.	c #388837",
"4.	c #64A263",
"5.	c #FCFEFD",
"6.	c #E0ECE0",
"7.	c #72AB75",
"8.	c #74AC74",
"9.	c #70AC71",
"0.	c #579E5C",
"a.	c #026702",
"b.	c #D4E5D4",
"c.	c #EEF2EB",
"d.	c #9EC09E",
"e.	c #99C292",
"f.	c #90BE8C",
"g.	c #85BA88",
"h.	c #DEEBE0",
"i.	c #84BA8A",
"j.	c #84BA89",
"k.	c #479447",
"l.	c #82BA85",
"m.	c #43942F",
"n.	c #45942D",
"o.	c #42942C",
"p.	c #6DB042",
"q.	c #49942D",
"r.	c #44942F",
"s.	c #6FB040",
"  . + @ @ @ @ @ @ @ @ @ @ @ @ @ @ @ @ @ @ @ @ @ @ @ @ @ @ # $ % ",
"& * * * * * * * * * * * * * * * * * * * * * * * * * * * * * * = ",
"- * * * * * * * * * * * * * * * * * * * * * * * * * * * * * * ; ",
"> * * , ' ) ! ~ { { ! ! { { ! ! { { ! ! { { ! ! { { ) ] ^ * * / ",
"> * * ' ( ( ( _ ( _ ( ( _ ( ( _ ( ( _ ( ( _ ( _ ( _ ( ( : * * @ ",
"> * * < ( ( ( ( ( ( ( ( ( ( ( ( ( ( ( ( ( ( ( ( ( ( ( ( ) * * > ",
"> * * [ _ ( ( ( ( ( ( ( ( ( ( ( ( ( ( ( ( ( ( ( ( ( ( ( } * * > ",
"> * * [ ( ( ( ( ( ( ( ( ( ( ( ( ( ( ( ( ( ( ( ( ( ( ( ( } * * > ",
"> * * [ ( ( ( ( ( ( ( _ ( | ( ( ( ( ( ( ( ( ( ( ( ( ( ( } * * > ",
"> * * [ ( ( 1 2 3 4 5 6 7 8 ( ( ( 9 0 a b a b c d ( ( ( } * * > ",
"> * * [ ( ( e f g h * * * i j k l m n * * * * n o ( ( ( } * * > ",
"> * * [ ( ( p q r s * * * * i t m h * * * * * u v ( ( ( } * * > ",
"> * * [ ( ( ( w x y z h * * * A n * * * * * B C D ( ( ( } * * > ",
"> * * [ ( ( ( ( E F G H * * * * * * * * * I J ( ( ( ( ( } * * > ",
"> * * [ ( ( ( ( ( K L M N n * * * * * * O P _ ( ( ( ( ( } * * > ",
"> * * [ ( ( ( ( ( ( Q R S T * * * * * U V _ ( ( ( ( ( ( } * * > ",
"> * * [ ( ( ( ( ( ( W X Y Z ` h * * *  ...+.@.#.$.( ( ( } * * > ",
"> * * [ ( ( ( ( ( %.&.* * *.=.-.* * * * * * * h ;.( ( ( } * * > ",
"> * * [ ( ( ( ( >.,.h * * * '.).!.* * * * * * n ~.( ( ( } * * > ",
"> * * [ ( ( ( C 7 h * * * * * {.].^.n * * * h /.v ( ( ( } * * > ",
"> * * [ ( ( (._.* * * * * * * * :.<.[.* * * * }.|.| ( ( } * * > ",
"> * * [ ( ( 1.Y * * * * * * * * h 2.3.* * * * n 4.5.( ( } * * > ",
"> * * [ ( ( 6.7.8.8.8.8.8.8.8.8.8.9.0.n * * * * a.b.( ( } * * > ",
"> * * [ ( ( ( ( ( ( ( ( ( ( ( ( ( _ c.d.e.f.} } g.h.( ( } * * > ",
"> * * [ ( ( ( ( ( ( ( ( ( ( ( ( ( _ ( _ D v ( ( ( v ( ( } * * > ",
"> * * [ _ ( ( ( ( ( ( ( ( ( ( ( ( ( ( ( ( ( ( ( ( ( ( ( } * * > ",
"> * * i.( ( ( ( ( ( ( ( ( ( ( ( ( ( ( ( ( ( ( ( ( ( ( ( ) * * > ",
"> * * ' ( ( ( _ ( _ ( ( _ ( ( _ ( ( _ ( ( _ ( _ ( _ ( ( j.* * @ ",
"> * * k.l.) ! ~ { { ! ! { { ! ! { { ! ! { { ! ! { { ) j.k.* * / ",
"m.* * * * * * * * * * * * * * * * * * * * * * * * * * * * * * n.",
"o.* * * * * * * * * * * * * * * * * * * * * * * * * * * * * * = ",
"p.q.n./ @ @ @ @ @ @ @ @ @ @ @ @ @ @ @ @ @ @ @ @ @ @ @ @ @ r.+ s."};
