/* XPM */
static char * explorer_16_xpm[] = {
"16 16 184 2",
"  	c None",
". 	c #462D00",
"+ 	c #805800",
"@ 	c #816400",
"# 	c #816E00",
"$ 	c #817600",
"% 	c #817B00",
"& 	c #817D00",
"* 	c #817500",
"= 	c #816700",
"- 	c #816300",
"; 	c #815E00",
"> 	c #754E00",
", 	c #2F1E00",
"' 	c #F8B034",
") 	c #FED270",
"! 	c #FFE583",
"~ 	c #FFEE83",
"{ 	c #FFF383",
"] 	c #FFF283",
"^ 	c #FFE87F",
"/ 	c #FEBD37",
"( 	c #FF9C00",
"_ 	c #FFBD00",
": 	c #FFD800",
"< 	c #A28400",
"[ 	c #583F11",
"} 	c #FFD479",
"| 	c #FED06E",
"1 	c #FFDC7B",
"2 	c #FFDF7B",
"3 	c #FFE27B",
"4 	c #FFE67B",
"5 	c #FFE97B",
"6 	c #FFED7B",
"7 	c #FFEF7A",
"8 	c #FEAC10",
"9 	c #FFD900",
"0 	c #D9C700",
"a 	c #5F4614",
"b 	c #FFC446",
"c 	c #FEC342",
"d 	c #FFCD46",
"e 	c #FFD246",
"f 	c #FFD746",
"g 	c #FAD745",
"h 	c #F7DA44",
"i 	c #FCE23E",
"j 	c #FFE72C",
"k 	c #FEB208",
"l 	c #DDCB00",
"m 	c #5F4105",
"n 	c #FFB212",
"o 	c #FEB616",
"p 	c #FFBE12",
"q 	c #ECB612",
"r 	c #A3924F",
"s 	c #AAAAA0",
"t 	c #B6B8B9",
"u 	c #AAA88C",
"v 	c #B2A324",
"w 	c #FAAE00",
"x 	c #5F3E00",
"y 	c #FFAC00",
"z 	c #FEB106",
"A 	c #F2B000",
"B 	c #898366",
"C 	c #BAC2CA",
"D 	c #AEB6AB",
"E 	c #AFB598",
"F 	c #BEC4C3",
"G 	c #CDD2D6",
"H 	c #9B7834",
"I 	c #FEBC00",
"J 	c #A58224",
"K 	c #A5AFB9",
"L 	c #B0B084",
"M 	c #EAE5B5",
"N 	c #F6F2D2",
"O 	c #D8D895",
"P 	c #A7B092",
"Q 	c #B3B8BC",
"R 	c #D3A002",
"S 	c #FDB106",
"T 	c #8E8156",
"U 	c #9CA291",
"V 	c #CBB52A",
"W 	c #E6CB3D",
"X 	c #ECD442",
"Y 	c #E2D344",
"Z 	c #B6B932",
"` 	c #C0C6CD",
" .	c #AD8F22",
"..	c #FDB006",
"+.	c #857C59",
"@.	c #A0A176",
"#.	c #CAAA00",
"$.	c #E6BE00",
"%.	c #ECC900",
"&.	c #DFC801",
"*.	c #BCBA02",
"=.	c #AEB7BA",
"-.	c #B0942F",
";.	c #CFBE00",
">.	c #907C3F",
",.	c #959E97",
"'.	c #BCA304",
").	c #D9B800",
"!.	c #DFC100",
"~.	c #D2C000",
"{.	c #AAAD20",
"].	c #B2BAC2",
"^.	c #B7A012",
"/.	c #988000",
"(.	c #332E00",
"_.	c #EAA306",
":.	c #807142",
"<.	c #8896A3",
"[.	c #A3A579",
"}.	c #B7AA20",
"|.	c #CABD28",
"1.	c #ADAC2A",
"2.	c #A1AA9B",
"3.	c #8B8F79",
"4.	c #F3E400",
"5.	c #4D4200",
"6.	c #EA9E00",
"7.	c #867D61",
"8.	c #D0D5DA",
"9.	c #A0AAB3",
"0.	c #68757F",
"a.	c #929EA9",
"b.	c #95A0A5",
"c.	c #98A4AF",
"d.	c #7E8372",
"e.	c #D1C007",
"f.	c #FFEE00",
"g.	c #4C4200",
"h.	c #452E01",
"i.	c #877E66",
"j.	c #D1D6DB",
"k.	c #B3BCC4",
"l.	c #727056",
"m.	c #D0A301",
"n.	c #A48C1E",
"o.	c #998A2C",
"p.	c #AE9A13",
"q.	c #F1D600",
"r.	c #FFE800",
"s.	c #5B6168",
"t.	c #D2D7DC",
"u.	c #B1BAC2",
"v.	c #747053",
"w.	c #E9B000",
"x.	c #FFC700",
"y.	c #FFCE00",
"z.	c #FFD400",
"A.	c #FFDC00",
"B.	c #FFE200",
"C.	c #4C4100",
"D.	c #60656A",
"E.	c #AAB3BC",
"F.	c #746B4F",
"G.	c #E6A200",
"H.	c #FAB600",
"I.	c #FABD00",
"J.	c #FAC400",
"K.	c #FACA00",
"L.	c #FAD000",
"M.	c #FAD600",
"N.	c #FADD00",
"O.	c #EED700",
"P.	c #221C00",
"Q.	c #1D2023",
"R.	c #633B03",
"S.	c #734600",
"T.	c #734800",
"U.	c #734A00",
"V.	c #734D00",
"W.	c #734F00",
"X.	c #735200",
"Y.	c #735400",
"Z.	c #735600",
"`.	c #3D3000",
"    . + @ # $ % & * = - ; >     ",
"  , ' ) ! ~ { ] ~ ^ / ( _ : <   ",
"  [ } | 1 2 3 4 5 6 7 8 _ 9 0   ",
"  a b c d e f g h i j k _ 9 l   ",
"  m n o p q r s t u v w _ 9 l   ",
"  x y z A B C D E F G H I 9 l   ",
"  x y z J K L M N O P Q R 9 l   ",
"  x y S T U V W X Y Z `  .9 l   ",
"  x y ..+.@.#.$.%.&.*.=.-.9 ;.  ",
"  x y S >.,.'.).!.~.{.].^./.(.  ",
"  x y _.:.<.[.}.|.1.2.3.4.5.    ",
"  x 6.7.8.9.0.a.b.c.d.e.f.g.    ",
"  h.i.j.k.l.m.n.o.p.q.r.f.g.    ",
"  s.t.u.v.w.x.y.z.A.B.r.f.C.    ",
"  D.E.F.G.H.I.J.K.L.M.N.O.P.    ",
"    Q.R.S.T.U.V.W.X.Y.Z.`.      "};
