/* XPM */
static char * explorer_xpm[] = {
"32 32 580 2",
"  	c None",
". 	c #000000",
"+ 	c #050300",
"@ 	c #080500",
"# 	c #080600",
"$ 	c #080700",
"% 	c #080800",
"& 	c #060400",
"* 	c #241700",
"= 	c #B67400",
"- 	c #F6A500",
"; 	c #FAB300",
"> 	c #FABD00",
", 	c #FAC700",
"' 	c #FAD100",
") 	c #FADA00",
"! 	c #FAE200",
"~ 	c #FAE900",
"{ 	c #FAED00",
"] 	c #FAF100",
"^ 	c #FAF400",
"/ 	c #FAF000",
"( 	c #FADC00",
"_ 	c #FACA00",
": 	c #FAC600",
"< 	c #FAC200",
"[ 	c #FAB800",
"} 	c #F7AB00",
"| 	c #C07B00",
"1 	c #301E00",
"2 	c #100A00",
"3 	c #E28D00",
"4 	c #FFA306",
"5 	c #FEBA2A",
"6 	c #FFCF49",
"7 	c #FFD949",
"8 	c #FFE149",
"9 	c #FFE949",
"0 	c #FFF049",
"a 	c #FFF549",
"b 	c #FFF749",
"c 	c #FFF449",
"d 	c #FFEA49",
"e 	c #FFE649",
"f 	c #FFE049",
"g 	c #FFD538",
"h 	c #FEB308",
"i 	c #FD8E00",
"j 	c #FF9200",
"k 	c #FFA300",
"l 	c #FFB400",
"m 	c #FFC600",
"n 	c #FFD400",
"o 	c #FFDB00",
"p 	c #EEB100",
"q 	c #1B1100",
"r 	c #694200",
"s 	c #FFB028",
"t 	c #FFE0A0",
"u 	c #FCD590",
"v 	c #FFECBD",
"w 	c #FFEDBD",
"x 	c #FFEEBD",
"y 	c #FFEFBD",
"z 	c #FFF0BD",
"A 	c #FFF1BD",
"B 	c #FFF2BD",
"C 	c #FFF3BD",
"D 	c #FFF4BD",
"E 	c #FFF5BD",
"F 	c #FFF6BD",
"G 	c #FFF1A4",
"H 	c #FEC230",
"I 	c #FE9600",
"J 	c #FFDE00",
"K 	c #FFE700",
"L 	c #806500",
"M 	c #875A0C",
"N 	c #FFD580",
"O 	c #FFDA88",
"P 	c #FCCA6A",
"Q 	c #FFDD89",
"R 	c #FFDE88",
"S 	c #FFE088",
"T 	c #FFE188",
"U 	c #FFE388",
"V 	c #FFE488",
"W 	c #FFE688",
"X 	c #FFE788",
"Y 	c #FFE988",
"Z 	c #FFEA88",
"` 	c #FFEC88",
" .	c #FFEE88",
"..	c #FFEF88",
"+.	c #FFF088",
"@.	c #FFF083",
"#.	c #FDA810",
"$.	c #AA9E00",
"%.	c #8B6A2A",
"&.	c #FFD06E",
"*.	c #FFD26E",
"=.	c #FCC457",
"-.	c #FFD66F",
";.	c #FFD76E",
">.	c #FFD96E",
",.	c #FFDB6E",
"'.	c #FFDC6E",
").	c #FFDE6E",
"!.	c #FFE06E",
"~.	c #FFE26E",
"{.	c #FFE46E",
"].	c #FFE66E",
"^.	c #FFE86E",
"/.	c #FFEA6E",
"(.	c #FFEC6E",
"_.	c #FFED6E",
":.	c #FFEF6E",
"<.	c #FEC131",
"[.	c #BBAF00",
"}.	c #967026",
"|.	c #FFC753",
"1.	c #FFC953",
"2.	c #FCBF44",
"3.	c #FFCE55",
"4.	c #FFD053",
"5.	c #FFD253",
"6.	c #FFD453",
"7.	c #FFD653",
"8.	c #FFD953",
"9.	c #FFDB53",
"0.	c #FFDD53",
"a.	c #FFDF53",
"b.	c #FFE253",
"c.	c #FFE453",
"d.	c #FFE653",
"e.	c #FFE853",
"f.	c #FFEA53",
"g.	c #FFEC4E",
"h.	c #FCC21F",
"i.	c #966C1A",
"j.	c #FFBE38",
"k.	c #FFC038",
"l.	c #FCB832",
"m.	c #FFC63B",
"n.	c #FFC838",
"o.	c #FFCB38",
"p.	c #FFCE38",
"q.	c #FFD038",
"r.	c #FFD338",
"s.	c #FED438",
"t.	c #F9D338",
"u.	c #F1CE36",
"v.	c #EECE36",
"w.	c #EFD236",
"x.	c #F6D931",
"y.	c #FCE022",
"z.	c #FFE210",
"A.	c #FFE401",
"B.	c #FCBE00",
"C.	c #96680E",
"D.	c #FFB41E",
"E.	c #FFB81E",
"F.	c #FCB31F",
"G.	c #FFBE21",
"H.	c #FFC01E",
"I.	c #FFC31E",
"J.	c #FFC71E",
"K.	c #FEC91E",
"L.	c #EBBD1D",
"M.	c #93791A",
"N.	c #787048",
"O.	c #818077",
"P.	c #8B8D8E",
"Q.	c #888885",
"R.	c #7E7A5A",
"S.	c #7F7219",
"T.	c #CDB400",
"U.	c #FBE000",
"V.	c #966303",
"W.	c #FFAD06",
"X.	c #FFB006",
"Y.	c #FCAE0E",
"Z.	c #FFB709",
"`.	c #FFBA06",
" +	c #FFBC06",
".+	c #FCBD06",
"++	c #B58A07",
"@+	c #63604D",
"#+	c #AAB0B8",
"$+	c #D3D8DD",
"%+	c #DCE0E4",
"&+	c #E2E6E8",
"*+	c #E3E6E9",
"=+	c #DFE3E6",
"-+	c #CCD2D7",
";+	c #7D8181",
">+	c #817611",
",+	c #EEB300",
"'+	c #966200",
")+	c #FFAA00",
"!+	c #FFAE00",
"~+	c #FCAC0A",
"{+	c #FFB603",
"]+	c #FFB800",
"^+	c #FDB900",
"/+	c #A77D02",
"(+	c #6A6F71",
"_+	c #BDC4CB",
":+	c #C8CED5",
"<+	c #C5CCD2",
"[+	c #C9CFD4",
"}+	c #C8CED4",
"|+	c #D1D6DB",
"1+	c #DDE1E4",
"2+	c #D8DCE0",
"3+	c #9DA4AC",
"4+	c #684F1E",
"5+	c #F29B00",
"6+	c #CC9600",
"7+	c #5C605E",
"8+	c #B8C0C8",
"9+	c #B3BCC4",
"0+	c #B0B9C2",
"a+	c #9AA4A1",
"b+	c #929766",
"c+	c #969B59",
"d+	c #8E9558",
"e+	c #8B9681",
"f+	c #ACB5BE",
"g+	c #E0E3E6",
"h+	c #929BA4",
"i+	c #80590C",
"j+	c #FCB200",
"k+	c #F9B300",
"l+	c #635220",
"m+	c #A7B0BA",
"n+	c #A6B0BA",
"o+	c #A5AFB8",
"p+	c #9C9D66",
"q+	c #D4CF8A",
"r+	c #F4F2DA",
"s+	c #FBFAF2",
"t+	c #F8F6E6",
"u+	c #E0E0A1",
"v+	c #A6AB4C",
"w+	c #899691",
"x+	c #D9DEE1",
"y+	c #DADEE2",
"z+	c #5E6365",
"A+	c #D49800",
"B+	c #D69A00",
"C+	c #636A6E",
"D+	c #A1ACB6",
"E+	c #A5B0B9",
"F+	c #9E9D5C",
"G+	c #E0D897",
"H+	c #EEE8B8",
"I+	c #F1EAB8",
"J+	c #F2EBB8",
"K+	c #F2ECB8",
"L+	c #F0ECB8",
"M+	c #EAE8AE",
"N+	c #AFB43C",
"O+	c #8B989A",
"P+	c #E2E5E8",
"Q+	c #B2BAC2",
"R+	c #7D5E0A",
"S+	c #FDC400",
"T+	c #FEB603",
"U+	c #986E01",
"V+	c #8C97A2",
"W+	c #94A1AC",
"X+	c #A0A695",
"Y+	c #C1B238",
"Z+	c #DCCC64",
"`+	c #E5D265",
" @	c #EAD665",
".@	c #ECDA65",
"+@	c #ECDB65",
"@@	c #E7DA65",
"#@	c #E0D865",
"$@	c #D0D053",
"%@	c #909B42",
"&@	c #625834",
"*@	c #F8C100",
"=@	c #FEB503",
"-@	c #7E5E09",
";@	c #96A2AE",
">@	c #9FAAB4",
",@	c #9C984E",
"'@	c #BDA404",
")@	c #D1B20A",
"!@	c #E0BE12",
"~@	c #E8C618",
"{@	c #ECCC1E",
"]@	c #EBCF21",
"^@	c #E5CE22",
"/@	c #DACC22",
"(@	c #CCC620",
"_@	c #ACB215",
":@	c #929EA8",
"<@	c #676556",
"[@	c #F3BD00",
"}@	c #7D5F0F",
"|@	c #8E9BA7",
"1@	c #A8B2BC",
"2@	c #99902D",
"3@	c #C1A500",
"4@	c #D4B000",
"5@	c #E2BA00",
"6@	c #EAC200",
"7@	c #EEC800",
"8@	c #ECCA00",
"9@	c #E5CA01",
"0@	c #DAC602",
"a@	c #C9C003",
"b@	c #B2B602",
"c@	c #879494",
"d@	c #D7DBE0",
"e@	c #6F6E60",
"f@	c #F0BB00",
"g@	c #BAAE00",
"h@	c #81600C",
"i@	c #8795A2",
"j@	c #A8B2BB",
"k@	c #979033",
"l@	c #C0A400",
"m@	c #D3B000",
"n@	c #E0BA00",
"o@	c #EAC100",
"p@	c #EDC700",
"q@	c #EBCA00",
"r@	c #E4C900",
"s@	c #D8C500",
"t@	c #C7BE00",
"u@	c #B0B502",
"v@	c #8A969A",
"w@	c #6E6A5B",
"x@	c #857C00",
"y@	c #986E02",
"z@	c #7A8793",
"A@	c #9C9B64",
"B@	c #B9A100",
"C@	c #CDAD00",
"D@	c #DAB700",
"E@	c #E3BE00",
"F@	c #E6C300",
"G@	c #E5C600",
"H@	c #DEC500",
"I@	c #D2C200",
"J@	c #C1BB00",
"K@	c #A2AA1C",
"L@	c #9AA5B0",
"M@	c #C9CFD5",
"N@	c #6A623C",
"O@	c #F7C000",
"P@	c #FDD300",
"Q@	c #B09900",
"R@	c #7E7200",
"S@	c #0A0900",
"T@	c #D49900",
"U@	c #5A6268",
"V@	c #778696",
"W@	c #ACB4B5",
"X@	c #A7980F",
"Y@	c #C1A700",
"Z@	c #CFB100",
"`@	c #D7B800",
" #	c #DABD00",
".#	c #D8BF00",
"+#	c #D2BE00",
"@#	c #C6BB00",
"##	c #B5B500",
"$#	c #8F9966",
"%#	c #B1BAC3",
"&#	c #7F780D",
"*#	c #FDE500",
"=#	c #977C00",
"-#	c #FDB403",
";#	c #534824",
">#	c #748494",
",#	c #98A5B0",
"'#	c #9CA188",
")#	c #AC9D08",
"!#	c #BEAA02",
"~#	c #C7B102",
"{#	c #CAB502",
"]#	c #C8B702",
"^#	c #C1B602",
"/#	c #B5B201",
"(#	c #969E43",
"_#	c #A0AAB4",
":#	c #B7BFC8",
"<#	c #686E6E",
"[#	c #D2C400",
"}#	c #FFF000",
"|#	c #6D5D00",
"1#	c #FAAB09",
"2#	c #B78203",
"3#	c #565854",
"4#	c #82898F",
"5#	c #A2ADB7",
"6#	c #708090",
"7#	c #A4AB9F",
"8#	c #99983E",
"9#	c #BEB63D",
"0#	c #CDC652",
"a#	c #C7C248",
"b#	c #AAAB38",
"c#	c #939C6C",
"d#	c #A3AEB7",
"e#	c #ABB4BE",
"f#	c #8E98A1",
"g#	c #7E770D",
"h#	c #FCEA00",
"i#	c #6C5D00",
"j#	c #FCAC00",
"k#	c #B27A04",
"l#	c #5B5F5D",
"m#	c #AEB7C0",
"n#	c #8A97A4",
"o#	c #8896A3",
"p#	c #AFB8C1",
"q#	c #A8B1B6",
"r#	c #A6ADA6",
"s#	c #A2ACAC",
"t#	c #A6B0B9",
"u#	c #87919C",
"v#	c #635E1B",
"w#	c #F2DE00",
"x#	c #FFED00",
"y#	c #FCA900",
"z#	c #B07801",
"A#	c #5E6261",
"B#	c #707E8A",
"C#	c #414746",
"D#	c #687684",
"E#	c #7B8A99",
"F#	c #8492A0",
"G#	c #8C9AA6",
"H#	c #5A6368",
"I#	c #796F0E",
"J#	c #F1DA00",
"K#	c #FFEA00",
"L#	c #926000",
"M#	c #A87002",
"N#	c #606566",
"O#	c #B1BAC2",
"P#	c #DDE0E4",
"Q#	c #B6BFC6",
"R#	c #8C99A6",
"S#	c #495156",
"T#	c #BA9000",
"U#	c #8E7104",
"V#	c #5C562C",
"W#	c #4A504C",
"X#	c #4B545A",
"Y#	c #4C5456",
"Z#	c #54553C",
"`#	c #726611",
" $	c #CBB200",
".$	c #FFE600",
"+$	c #473003",
"@$	c #62686B",
"#$	c #B2BBC4",
"$$	c #DEE1E5",
"%$	c #B5BEC5",
"&$	c #8A98A5",
"*$	c #4F585B",
"=$	c #A47E02",
"-$	c #FCC200",
";$	c #FEC800",
">$	c #F8C700",
",$	c #F0C300",
"'$	c #E4BD00",
")$	c #EAC400",
"!$	c #F5D100",
"~$	c #FCDB00",
"{$	c #FFE000",
"]$	c #FFE400",
"^$	c #030304",
"/$	c #5E6770",
"($	c #B4BDC5",
"_$	c #DEE2E6",
":$	c #D6DBDF",
"<$	c #B4BCC5",
"[$	c #8997A4",
"}$	c #4D5456",
"|$	c #AC8101",
"1$	c #FCC000",
"2$	c #FFC500",
"3$	c #FFC900",
"4$	c #FFCC00",
"5$	c #FFD000",
"6$	c #FFD300",
"7$	c #FFD600",
"8$	c #FFDA00",
"9$	c #FFDD00",
"0$	c #50585F",
"a$	c #DFE2E6",
"b$	c #D6DADE",
"c$	c #B2BBC3",
"d$	c #4C5252",
"e$	c #B08201",
"f$	c #FCBC00",
"g$	c #FFC200",
"h$	c #6C5C00",
"i$	c #44494E",
"j$	c #D2D7DC",
"k$	c #8695A2",
"l$	c #4B504E",
"m$	c #B28000",
"n$	c #FBB700",
"o$	c #FDBC00",
"p$	c #FDBF00",
"q$	c #FDC200",
"r$	c #FDC600",
"s$	c #FDCA00",
"t$	c #FDCD00",
"u$	c #FDD000",
"v$	c #FDD700",
"w$	c #FDDA00",
"x$	c #FDDD00",
"y$	c #FDE000",
"z$	c #FDE400",
"A$	c #FDE700",
"B$	c #FDEA00",
"C$	c #FDEC00",
"D$	c #4A3E00",
"E$	c #040405",
"F$	c #6A727A",
"G$	c #9FA9B3",
"H$	c #84929F",
"I$	c #4A4E4C",
"J$	c #B57A01",
"K$	c #F4A600",
"L$	c #F6AB00",
"M$	c #F6AE00",
"N$	c #F6B100",
"O$	c #F6B400",
"P$	c #F6B700",
"Q$	c #F6BA00",
"R$	c #F6BD00",
"S$	c #F6C000",
"T$	c #F6C400",
"U$	c #F6C600",
"V$	c #F6CA00",
"W$	c #F6CC00",
"X$	c #F6D000",
"Y$	c #F6D300",
"Z$	c #F6D600",
"`$	c #F6D900",
" %	c #C9AD00",
".%	c #050400",
"+%	c #020203",
"@%	c #2B3137",
"#%	c #313638",
"$%	c #A16109",
"%%	c #E08402",
"&%	c #E08600",
"*%	c #E08800",
"=%	c #E08B00",
"-%	c #E08D00",
";%	c #E09000",
">%	c #E09200",
",%	c #E09400",
"'%	c #E09700",
")%	c #E09900",
"!%	c #E09C00",
"~%	c #E09E00",
"{%	c #E0A100",
"]%	c #E0A300",
"^%	c #E0A600",
"/%	c #E0A800",
"(%	c #DDA800",
"_%	c #9E7C00",
":%	c #171200",
"<%	c #030100",
"[%	c #060300",
"}%	c #040300",
"          . + @ # # # # # $ $ $ % % $ $ $ # # # # @ & .         ",
"        * = - ; > , ' ) ! ~ { ] ^ / ~ ( _ : < > [ ; } | 1 .     ",
"      2 3 4 5 6 7 8 9 0 a b c 0 d e f g h i j k l m n o p q     ",
"      r s t u v w x x y z A A B C D E F G H I k l m n J K L .   ",
"    . M N O P Q R S T U V W X Y Z `  ...+.@.#.k l m n J K $..   ",
"    . %.&.*.=.-.;.>.,.'.).!.~.{.].^./.(._.:.<.k l m n J K [..   ",
"    . }.|.1.2.3.4.5.6.7.8.9.0.a.b.c.d.e.f.g.h.k l m n J K [..   ",
"    . i.j.k.l.m.n.o.p.q.r.s.t.u.v.w.x.y.z.A.B.k l m n J K [..   ",
"    . C.D.E.F.G.H.I.J.K.L.M.N.O.P.Q.R.S.T.U.B.k l m n J K [..   ",
"    . V.W.X.Y.Z.`. +.+++@+#+$+%+&+*+=+-+;+>+,+k l m n J K [..   ",
"    . '+)+!+~+{+]+^+/+(+_+:+<+[+}+|+1+*+2+3+4+5+l m n J K [..   ",
"    . '+)+!+~+{+]+6+7+8+9+0+a+b+c+d+e+f+g+=+h+i+j+m n J K [..   ",
"    . '+)+!+~+{+k+l+m+n+o+p+q+r+s+t+u+v+w+x+y+z+A+m n J K [..   ",
"    . '+)+!+~+{+B+C+D+E+F+G+H+I+J+K+L+M+N+O+P+Q+R+S+n J K [..   ",
"    . '+)+!+~+T+U+V+W+X+Y+Z+`+ @.@+@@@#@$@%@8+2+&@*@n J K [..   ",
"    . '+)+!+~+=@-@;@>@,@'@)@!@~@{@]@^@/@(@_@:@%+<@[@n J K [..   ",
"    . '+)+!+~+=@}@|@1@2@3@4@5@6@7@8@9@0@a@b@c@d@e@f@n J K g@.   ",
"    . '+)+!+~+=@h@i@j@k@l@m@n@o@p@q@r@s@t@u@v@|+w@[@n J K x@.   ",
"    . '+)+!+~+T+y@z@;@A@B@C@D@E@F@G@H@I@J@K@L@M@N@O@P@Q@R@S@    ",
"    . '+)+!+~+{+T@U@V@W@X@Y@Z@`@ #.#+#@###$#%#Q+&#*#=#. .       ",
"    . '+)+!+~+-#B+;#>#,#'#)#!#~#{#]#^#/#(#_#:#<#[#}#|#          ",
"    . '+)+!+1#2#3#4#5#6#D+7#8#9#0#a#b#c#d#e#f#g#h#}#i#          ",
"    . '+)+j#k#l#m#%+2+n#6#o#p#q#r#s#t#n+>@u#v#w#x#}#i#          ",
"    . '+y#z#A#p#%+2+f+B#C#D#>#E#F#o#G#n#H#I#J#K#x#}#i#          ",
"    . L#M#N#O#P#2+Q#R#S#T#U#V#W#X#Y#Z#`# $U..$K#x#}#i#          ",
"    . +$@$#$$$2+%$&$*$=$-$;$>$,$'$)$!$~${$]$.$K#x#}#i#          ",
"    ^$/$($_$:$<$[$}$|$1$2$3$4$5$6$7$8$9${$]$.$K#x#}#i#          ",
"  . 0$9+a$b$c$o#d$e$f$g$2$3$4$5$6$7$8$9${$]$.$K#x#}#h$          ",
"  . i$M@j$O#k$l$m$n$o$p$q$r$s$t$u$P@v$w$x$y$z$A$B$C$D$          ",
"    E$F$G$H$I$J$K$L$M$N$O$P$Q$R$S$T$U$V$W$X$Y$Z$`$ %.%          ",
"      +%@%#%$%%%&%*%=%-%;%>%,%'%)%!%~%{%]%^%/%(%_%:%            ",
"          . <%[%& & & & & & & & & & & & & & & }%.               "};
