/* XPM */
static char * ieplore_16_xpm[] = {
"16 16 126 2",
"  	c None",
". 	c #F2B625",
"+ 	c #F2BC33",
"@ 	c #F0B118",
"# 	c #26353E",
"$ 	c #72848F",
"% 	c #B9CBD4",
"& 	c #E6D9A0",
"* 	c #EDC44C",
"= 	c #B7C3B4",
"- 	c #688598",
"; 	c #203543",
"> 	c #64899F",
", 	c #92B0A7",
"' 	c #E4CE76",
") 	c #DABF50",
"! 	c #92B9C4",
"~ 	c #83B2C7",
"{ 	c #73A8BF",
"] 	c #5992AC",
"^ 	c #153D59",
"/ 	c #071C2A",
"( 	c #295E7B",
"_ 	c #84A474",
": 	c #EECD5B",
"< 	c #C5AC40",
"[ 	c #39687C",
"} 	c #306782",
"| 	c #3684A3",
"1 	c #3899C0",
"2 	c #3197C1",
"3 	c #1F779D",
"4 	c #042643",
"5 	c #0E3048",
"6 	c #86A058",
"7 	c #EACB5A",
"8 	c #D5B43A",
"9 	c #148CBC",
"0 	c #138AB9",
"a 	c #107CAA",
"b 	c #063B5C",
"c 	c #020F1B",
"d 	c #72814A",
"e 	c #DCC85E",
"f 	c #EEBD2F",
"g 	c #2D5159",
"h 	c #0A7EB2",
"i 	c #0578B0",
"j 	c #07689C",
"k 	c #023C66",
"l 	c #656A33",
"m 	c #BAB860",
"n 	c #F5BC29",
"o 	c #698261",
"p 	c #003F6F",
"q 	c #046CB5",
"r 	c #0781D0",
"s 	c #0888D4",
"t 	c #078DD6",
"u 	c #068AD2",
"v 	c #0478B8",
"w 	c #025A93",
"x 	c #003662",
"y 	c #B2B04A",
"z 	c #EABA3C",
"A 	c #BCA83A",
"B 	c #024C8A",
"C 	c #025595",
"D 	c #0B6AAA",
"E 	c #1274B4",
"F 	c #1479B5",
"G 	c #1478B4",
"H 	c #1170AA",
"I 	c #095E95",
"J 	c #034576",
"K 	c #00274B",
"L 	c #EED452",
"M 	c #F2B00E",
"N 	c #2D6A92",
"O 	c #015097",
"P 	c #0971B7",
"Q 	c #FFF767",
"R 	c #F2BA28",
"S 	c #9A872F",
"T 	c #0055AC",
"U 	c #0666B7",
"V 	c #1698E0",
"W 	c #146092",
"X 	c #135F92",
"Y 	c #128EDA",
"Z 	c #0773C8",
"` 	c #0157AB",
" .	c #001F43",
"..	c #FEEF63",
"+.	c #E4A30D",
"@.	c #43432E",
"#.	c #00428B",
"$.	c #0A75CA",
"%.	c #21A2E6",
"&.	c #47C0F2",
"*.	c #4FB5DD",
"=.	c #47ACD7",
"-.	c #36B3EE",
";.	c #1694DE",
">.	c #0874C9",
",.	c #014187",
"'.	c #F6D853",
").	c #D89805",
"!.	c #011E48",
"~.	c #055BAA",
"{.	c #1C99E1",
"].	c #50C6F4",
"^.	c #7BE3FA",
"/.	c #72DDFA",
"(.	c #3EB9F0",
"_.	c #128AD8",
":.	c #03519D",
"<.	c #F2CC4C",
"[.	c #D59506",
"}.	c #0458AB",
"|.	c #277FBA",
"1.	c #1F8ED6",
"2.	c #1D8BD4",
"3.	c #0C72C3",
"4.	c #034D9B",
"5.	c #DB900A",
"                        .       ",
"                    + @         ",
"          # $ % & * = -         ",
"        ; > , ' ) ! ~ { ] ^     ",
"      / ( _ : < [ } | 1 2 3 4   ",
"      5 6 7 8         9 0 a b   ",
"    c d e f g         h i j k   ",
"    l m n o p q r s t u v w x   ",
"    y z A B C D E F G H I J K   ",
"    L M N O P                   ",
"  Q R S T U V W     X Y Z `  .  ",
"  ..+.@.#.$.%.&.*.=.-.;.>.,.    ",
"  '.).  !.~.{.].^./.(._.:.      ",
"  <.[.      }.|.1.2.3.4.        ",
"    5.                          ",
"                                "};
