/* XPM */
static char * ieplore_xpm[] = {
"32 32 504 2",
"  	c None",
". 	c #ECB031",
"+ 	c #E9A82D",
"@ 	c #FACE47",
"# 	c #F6BC28",
"$ 	c #EBA513",
"% 	c #E49808",
"& 	c #DA8906",
"* 	c #FBCF4C",
"= 	c #FABC24",
"- 	c #F3AE09",
"; 	c #D98A09",
"> 	c #202B35",
", 	c #4C575F",
"' 	c #65737C",
") 	c #687068",
"! 	c #E1C35A",
"~ 	c #FABF32",
"{ 	c #E0A314",
"] 	c #D98F0B",
"^ 	c #19252F",
"/ 	c #616E77",
"( 	c #A7B5BD",
"_ 	c #CFDBE2",
": 	c #D3E0E6",
"< 	c #E5E3BF",
"[ 	c #F8CD58",
"} 	c #F8B91F",
"| 	c #E2C160",
"1 	c #96A6AA",
"2 	c #485E71",
"3 	c #09223C",
"4 	c #08141D",
"5 	c #52646F",
"6 	c #9AAFBC",
"7 	c #A6BECC",
"8 	c #B0C9D7",
"9 	c #BED4DA",
"0 	c #E9DD9D",
"a 	c #F8C33C",
"b 	c #F6BF26",
"c 	c #CFCB94",
"d 	c #B6D6E5",
"e 	c #ADD0E0",
"f 	c #A3C6D7",
"g 	c #88AABC",
"h 	c #305069",
"i 	c #021C38",
"j 	c #11212C",
"k 	c #647E8E",
"l 	c #7B9BAE",
"m 	c #82A4B9",
"n 	c #8AAEC2",
"o 	c #B4C9B1",
"p 	c #EFD886",
"q 	c #F8C034",
"r 	c #F2C531",
"s 	c #B4C4A9",
"t 	c #9FC8DC",
"u 	c #9AC6DA",
"v 	c #92BFD5",
"w 	c #88B7CE",
"x 	c #7FAEC4",
"y 	c #76A4B8",
"z 	c #426C82",
"A 	c #03213C",
"B 	c #0F1F2C",
"C 	c #4F7286",
"D 	c #57829C",
"E 	c #5A89A4",
"F 	c #749C9E",
"G 	c #C7D282",
"H 	c #F7D571",
"I 	c #F8C131",
"J 	c #EEC637",
"K 	c #91B0A5",
"L 	c #7CAEC7",
"M 	c #79ABC2",
"N 	c #74A4BA",
"O 	c #6C9EB2",
"P 	c #669CB2",
"Q 	c #609EB8",
"R 	c #5A9FBD",
"S 	c #5298B7",
"T 	c #356F8A",
"U 	c #022341",
"V 	c #04131E",
"W 	c #2F576F",
"X 	c #376A89",
"Y 	c #387090",
"Z 	c #7A9F78",
"` 	c #D6DA6D",
" .	c #F6CF68",
"..	c #F7C031",
"+.	c #ECC638",
"@.	c #68928F",
"#.	c #4689A8",
"$.	c #4587A3",
"%.	c #4B849B",
"&.	c #4A859B",
"*.	c #488EA9",
"=.	c #4798B9",
"-.	c #439DC3",
";.	c #3F9EC6",
">.	c #3998C0",
",.	c #3189AF",
"'.	c #185777",
").	c #011C38",
"!.	c #000C14",
"~.	c #11354D",
"{.	c #1A5476",
"].	c #24617E",
"^.	c #8DAA5E",
"/.	c #D1D868",
"(.	c #F6CC66",
"_.	c #F6C031",
":.	c #EFC839",
"<.	c #42635E",
"[.	c #0A3454",
"}.	c #0B273F",
"|.	c #0B2942",
"1.	c #0C4363",
"2.	c #186A8F",
"3.	c #2E91B9",
"4.	c #2D98C2",
"5.	c #2B98C4",
"6.	c #2896C1",
"7.	c #2491BD",
"8.	c #1D88B4",
"9.	c #16739A",
"0.	c #063352",
"a.	c #021424",
"b.	c #104162",
"c.	c #21586E",
"d.	c #99B052",
"e.	c #CAD25E",
"f.	c #F5CF6B",
"g.	c #F5BC2E",
"h.	c #F6CC37",
"i.	c #52593F",
"j.	c #107098",
"k.	c #1B90BD",
"l.	c #1A91BE",
"m.	c #1890BD",
"n.	c #158BB9",
"o.	c #1284B2",
"p.	c #1176A3",
"q.	c #0B5175",
"r.	c #011833",
"s.	c #000C13",
"t.	c #041E39",
"u.	c #204F63",
"v.	c #9EAF4E",
"w.	c #C0C953",
"x.	c #F3D576",
"y.	c #F4B72A",
"z.	c #F9CB35",
"A.	c #717C50",
"B.	c #044063",
"C.	c #1089BA",
"D.	c #0B86BA",
"E.	c #0E87B8",
"F.	c #1185B5",
"G.	c #107FAF",
"H.	c #0E75A4",
"I.	c #0C5E86",
"J.	c #001E3C",
"K.	c #000D18",
"L.	c #102942",
"M.	c #94A651",
"N.	c #B3BE4D",
"O.	c #EEDA80",
"P.	c #F3B428",
"Q.	c #F9C832",
"R.	c #A39A44",
"S.	c #012F56",
"T.	c #0C78A6",
"U.	c #0681B9",
"V.	c #057CB4",
"W.	c #0676AC",
"X.	c #0A74A6",
"Y.	c #0C6E9E",
"Z.	c #085886",
"`.	c #002648",
" +	c #021123",
".+	c #05131F",
"++	c #7E8848",
"@+	c #A4AD4C",
"#+	c #DCD47C",
"$+	c #F2B530",
"%+	c #F7C22B",
"&+	c #D4B636",
"*+	c #0D4D76",
"=+	c #002E54",
"-+	c #022C50",
";+	c #083D64",
">+	c #144F73",
",+	c #1C5A7D",
"'+	c #1F5F82",
")+	c #1F6387",
"!+	c #1F688C",
"~+	c #176286",
"{+	c #117AA8",
"]+	c #0684C0",
"^+	c #057DB7",
"/+	c #0472AB",
"(+	c #03679E",
"_+	c #02588D",
":+	c #014A7B",
"<+	c #002A4F",
"[+	c #011021",
"}+	c #5C6232",
"|+	c #9CA44E",
"1+	c #BEC26B",
"2+	c #F4C04C",
"3+	c #F5BA20",
"4+	c #F4C729",
"5+	c #346878",
"6+	c #003E6E",
"7+	c #00355E",
"8+	c #014C84",
"9+	c #036BB3",
"0+	c #0476C3",
"a+	c #067BC7",
"b+	c #0680CB",
"c+	c #0684CE",
"d+	c #0688CF",
"e+	c #0689CF",
"f+	c #068CD2",
"g+	c #0686CA",
"h+	c #047EBC",
"i+	c #0472AD",
"j+	c #03639C",
"k+	c #02548A",
"l+	c #004576",
"m+	c #002950",
"n+	c #011020",
"o+	c #969842",
"p+	c #A0A856",
"q+	c #EFD06F",
"r+	c #F2B017",
"s+	c #F8C822",
"t+	c #7C8D5C",
"u+	c #014C88",
"v+	c #003967",
"w+	c #004F8A",
"x+	c #0377C7",
"y+	c #0784D6",
"z+	c #0888D9",
"A+	c #098BDB",
"B+	c #098DDC",
"C+	c #098EDD",
"D+	c #0891DE",
"E+	c #0792DE",
"F+	c #068EDC",
"G+	c #0487D2",
"H+	c #047EC4",
"I+	c #0370B2",
"J+	c #02619D",
"K+	c #015088",
"L+	c #004274",
"M+	c #00274E",
"N+	c #010F1D",
"O+	c #C4C04B",
"P+	c #969844",
"Q+	c #D1C870",
"R+	c #F1AE21",
"S+	c #F7BE19",
"T+	c #CCB030",
"U+	c #065A9E",
"V+	c #004278",
"W+	c #00467E",
"X+	c #036DBB",
"Y+	c #0A7FCC",
"Z+	c #138AD3",
"`+	c #178ED7",
" @	c #1891D8",
".@	c #1A94D9",
"+@	c #1C95DA",
"@@	c #1A93D7",
"#@	c #188ED2",
"$@	c #1487C8",
"%@	c #0F7CBB",
"&@	c #096EAD",
"*@	c #045E9A",
"=@	c #025088",
"-@	c #003E72",
";@	c #002247",
">@	c #000E1C",
",@	c #DAD552",
"'@	c #A5A44A",
")@	c #F4C24B",
"!@	c #F4B012",
"~@	c #F6C015",
"{@	c #387088",
"]@	c #005298",
"^@	c #004178",
"/@	c #0264B0",
"(@	c #023B6B",
"_@	c #FFF760",
":@	c #F6EF5A",
"<@	c #D7C45B",
"[@	c #F1A612",
"}@	c #F8BA10",
"|@	c #9A9447",
"1@	c #005BB3",
"2@	c #00488A",
"3@	c #005094",
"4@	c #077CCF",
"5@	c #054E84",
"6@	c #FFF762",
"7@	c #FEF35E",
"8@	c #F5BE3B",
"9@	c #F4AC08",
"0@	c #EDB50E",
"a@	c #1A62A0",
"b@	c #0058AE",
"c@	c #004586",
"d@	c #0365B8",
"e@	c #0D89D7",
"f@	c #0C71B2",
"g@	c #165D8F",
"h@	c #155F96",
"i@	c #14588D",
"j@	c #0D4E85",
"k@	c #043D6F",
"l@	c #02325E",
"m@	c #01254A",
"n@	c #001225",
"o@	c #030D16",
"p@	c #FFF76C",
"q@	c #FDE65C",
"r@	c #EEA30F",
"s@	c #F5B604",
"t@	c #80804A",
"u@	c #015AB4",
"v@	c #0053A8",
"w@	c #004C97",
"x@	c #0875C9",
"y@	c #1090DC",
"z@	c #1598E0",
"A@	c #0A3F6A",
"B@	c #0C406A",
"C@	c #1892DA",
"D@	c #0C86D5",
"E@	c #0878CC",
"F@	c #046CC2",
"G@	c #015FB6",
"H@	c #004E9D",
"I@	c #00326A",
"J@	c #001128",
"K@	c #FFF86D",
"L@	c #F5C63E",
"M@	c #EAA204",
"N@	c #E1A805",
"O@	c #123E6A",
"P@	c #0058B2",
"Q@	c #0050A4",
"R@	c #0257AC",
"S@	c #0C7FD1",
"T@	c #1394DE",
"U@	c #22A3E7",
"V@	c #239CDC",
"W@	c #0E4773",
"X@	c #0C436F",
"Y@	c #1E8DCC",
"Z@	c #1496E0",
"`@	c #0F8AD8",
" #	c #0A7BCE",
".#	c #066DC5",
"+#	c #0261BA",
"@#	c #004D9E",
"##	c #002452",
"$#	c #010F1E",
"%#	c #FFF86E",
"&#	c #FEEF5B",
"*#	c #EBAB22",
"=#	c #E6A704",
"-#	c #A27C10",
";#	c #001D47",
">#	c #004A9B",
",#	c #004FA4",
"'#	c #0462BC",
")#	c #0E84D5",
"!#	c #1698E0",
"~#	c #28A8EA",
"{#	c #3BB7F0",
"]#	c #40BBF0",
"^#	c #349FD4",
"/#	c #247CAD",
"(#	c #2174A6",
"_#	c #2C90C6",
":#	c #32AEEA",
"<#	c #2AAAEB",
"[#	c #1A9BE2",
"}#	c #108BDA",
"|#	c #0A7CCF",
"1#	c #025EB8",
"2#	c #003B7E",
"3#	c #001431",
"4#	c #FFF872",
"5#	c #FCE457",
"6#	c #E0980A",
"7#	c #E0A303",
"8#	c #021535",
"9#	c #002A5E",
"0#	c #00438E",
"a#	c #0568C0",
"b#	c #0F86D7",
"c#	c #199AE2",
"d#	c #2DACEC",
"e#	c #45BFF2",
"f#	c #5CCFF6",
"g#	c #6FDBF9",
"h#	c #75DFFA",
"i#	c #70DCF9",
"j#	c #60D2F6",
"k#	c #4BC3F3",
"l#	c #33B1EE",
"m#	c #1D9EE4",
"n#	c #108CDA",
"o#	c #0B7CCF",
"p#	c #066AC2",
"q#	c #004C9D",
"r#	c #001E48",
"s#	c #FFF877",
"t#	c #F4CD44",
"u#	c #DB9604",
"v#	c #D89E06",
"w#	c #01173C",
"x#	c #002454",
"y#	c #035AB0",
"z#	c #0D80D2",
"A#	c #1899E1",
"B#	c #2EAEED",
"C#	c #48C0F3",
"D#	c #63D4F7",
"E#	c #7AE2FA",
"F#	c #85EAFC",
"G#	c #80E6FB",
"H#	c #6CDAF9",
"I#	c #50C6F4",
"J#	c #36B4F0",
"K#	c #1D9EE5",
"L#	c #1089D8",
"M#	c #0873C9",
"N#	c #0254A8",
"O#	c #002658",
"P#	c #FFF87D",
"Q#	c #EFBE36",
"R#	c #D89604",
"S#	c #D29906",
"T#	c #003370",
"U#	c #045EB4",
"V#	c #1F9EE4",
"W#	c #3BB8F0",
"X#	c #58CDF6",
"Y#	c #70DDF9",
"Z#	c #7CE4FA",
"`#	c #77E0FA",
" $	c #63D4F8",
".$	c #47C0F3",
"+$	c #2AA9EA",
"@$	c #138FDC",
"#$	c #0871C8",
"$$	c #014FA0",
"%$	c #012B5F",
"&$	c #ECB731",
"*$	c #033A79",
"=$	c #014EA0",
"-$	c #0668C0",
";$	c #1082D3",
">$	c #209BE1",
",$	c #30ACEA",
"'$	c #39B4ED",
")$	c #36B2EC",
"!$	c #2AA7E8",
"~$	c #1992DC",
"{$	c #0B78CC",
"]$	c #045DB3",
"^$	c #01418A",
"/$	c #022E63",
"($	c #ECB835",
"_$	c #D89204",
":$	c #547584",
"<$	c #1D66A7",
"[$	c #0766BC",
"}$	c #0869BF",
"|$	c #0868BE",
"1$	c #0663BA",
"2$	c #055BB2",
"3$	c #034EA0",
"4$	c #F3CA4B",
"5$	c #DA8C04",
"6$	c #D59207",
"7$	c #EEA522",
"8$	c #E29B18",
"9$	c #DA8A04",
"0$	c #DB8D09",
"a$	c #E69F22",
"b$	c #E59C1B",
"c$	c #DD930F",
"d$	c #DB8A07",
"e$	c #DB8C08",
"                                                      . +       ",
"                                              @ # $ %       &   ",
"                                          * = -               ; ",
"                              > , ' ) ! ~ {                   ] ",
"                        ^ / ( _ : < [ } | 1 2 3                 ",
"                    4 5 6 7 8 9 0 a b c d e f g h i             ",
"                  j k l m n o p q r s t u v w x y z A           ",
"                B C D E F G H I J K L M N O P Q R S T U         ",
"              V W X Y Z `  ...+.@.#.$.%.&.*.=.-.;.>.,.'.).      ",
"            !.~.{.].^./.(._.:.<.[.}.|.1.2.3.4.5.6.7.8.9.0.      ",
"            a.b.c.d.e.f.g.h.i.            j.k.l.m.n.o.p.q.r.    ",
"          s.t.u.v.w.x.y.z.A.              B.C.D.E.F.G.H.I.J.    ",
"          K.L.M.N.O.P.Q.R.S.                T.U.V.W.X.Y.Z.`. +  ",
"          .+++@+#+$+%+&+*+=+-+;+>+,+'+)+!+~+{+]+^+/+(+_+:+<+[+  ",
"          }+|+1+2+3+4+5+6+7+8+9+0+a+b+c+d+e+f+g+h+i+j+k+l+m+n+  ",
"          o+p+q+r+s+t+u+v+w+x+y+z+A+B+C+D+E+F+G+H+I+J+K+L+M+N+  ",
"        O+P+Q+R+S+T+U+V+W+X+Y+Z+`+ @.@+@+@@@#@$@%@&@*@=@-@;@>@  ",
"        ,@'@)@!@~@{@]@^@/@(@                                    ",
"      _@:@<@[@}@|@1@2@3@4@5@                                    ",
"      6@7@8@9@0@a@b@c@d@e@f@                g@h@i@j@k@l@m@n@o@  ",
"    p@6@q@r@s@t@u@v@w@x@y@z@A@            B@C@D@E@F@G@H@I@J@    ",
"    K@6@L@M@N@O@P@Q@R@S@T@U@V@W@        X@Y@Z@`@ #.#+#@###$#    ",
"    %#&#*#=#-#;#>#,#'#)#!#~#{#]#^#/#(#_#:#<#[#}#|#.#1#2#3#      ",
"    4#5#6#7#  8#9#0#a#b#c#d#e#f#g#h#i#j#k#l#m#n#o#p#q#r#        ",
"    s#t#u#v#    w#x#y#z#A#B#C#D#E#F#G#H#I#J#K#L#M#N#O#          ",
"    P#Q#R#S#        T#U#z#V#W#X#Y#Z#`# $.$+$@$#$$$%$            ",
"      &$R#            *$=$-$;$>$,$'$)$!$~${$]$^$/$              ",
"      ($_$                  :$<$[$}$|$1$2$3$                    ",
"      4$5$6$              7$                                    ",
"        8$9$0$      a$b$                                        ",
"          c$d$d$d$e$                                            ",
"                                                                "};
