/* XPM */
static char * outlook_16_xpm[] = {
"16 16 143 2",
"  	c #C0A004",
". 	c #C1A002",
"+ 	c #C1A003",
"@ 	c #C2A104",
"# 	c #C1A004",
"$ 	c #C2A103",
"% 	c #C2A307",
"& 	c #C0A103",
"* 	c #CAB02C",
"= 	c #D8C668",
"- 	c #DAC668",
"; 	c #D9C669",
"> 	c #D9C668",
", 	c #C8AF2B",
"' 	c #C0A203",
") 	c #DAC664",
"! 	c #FBFEFB",
"~ 	c #FCFDFD",
"{ 	c #FAF9F2",
"] 	c #EDE7C4",
"^ 	c #EFE9C7",
"/ 	c #FBFBF6",
"( 	c #FCFDFE",
"_ 	c #D5C366",
": 	c #C0A204",
"< 	c #FCFEFC",
"[ 	c #EAE3B9",
"} 	c #C3A71D",
"| 	c #C3A817",
"1 	c #C2A512",
"2 	c #C8AD25",
"3 	c #F0ECC8",
"4 	c #FEFEFD",
"5 	c #FEFEFE",
"6 	c #D6C267",
"7 	c #C2A306",
"8 	c #BFA002",
"9 	c #F4F2E1",
"0 	c #C2A414",
"a 	c #E2D68E",
"b 	c #E8DCA5",
"c 	c #F5F3DD",
"d 	c #D9C979",
"e 	c #C7AB1F",
"f 	c #FBFAEE",
"g 	c #FEFEFC",
"h 	c #DAC665",
"i 	c #DFD594",
"j 	c #D0B73D",
"k 	c #FEFDFC",
"l 	c #CCB238",
"m 	c #F0ECC5",
"n 	c #FBFCF6",
"o 	c #C6AA25",
"p 	c #ECE2AE",
"q 	c #FCFEFA",
"r 	c #FCFEFB",
"s 	c #FEFEFB",
"t 	c #D5C267",
"u 	c #C0A003",
"v 	c #DCCF8A",
"w 	c #D4BE4E",
"x 	c #CAB238",
"y 	c #C9AE27",
"z 	c #E8DEA7",
"A 	c #C9B034",
"B 	c #CEB63E",
"C 	c #D6C360",
"D 	c #D6C361",
"E 	c #D7C262",
"F 	c #E6DBA0",
"G 	c #D5C266",
"H 	c #ECE6C4",
"I 	c #C2A412",
"J 	c #F3F0D3",
"K 	c #F2EED5",
"L 	c #EFEBCA",
"M 	c #E6DDAB",
"N 	c #C2A20E",
"O 	c #D9C666",
"P 	c #D8C561",
"Q 	c #D8C562",
"R 	c #C8AE2D",
"S 	c #DAC66A",
"T 	c #C2A206",
"U 	c #FCFDFA",
"V 	c #D8C873",
"W 	c #C4A616",
"X 	c #D8C566",
"Y 	c #D5C25F",
"Z 	c #C1A410",
"` 	c #E2D68C",
" .	c #C9B033",
"..	c #CCB434",
"+.	c #FDFEFC",
"@.	c #FBFAF8",
"#.	c #C0A10A",
"$.	c #D3BF54",
"%.	c #DACA73",
"&.	c #EEE8C0",
"*.	c #FCFDF9",
"=.	c #DDCF83",
"-.	c #DFD285",
";.	c #C1A206",
">.	c #D9C664",
",.	c #FBFBF9",
"'.	c #C0A20A",
").	c #E4DAA0",
"!.	c #CBB232",
"~.	c #CCB331",
"{.	c #CCB232",
"].	c #E9E0A4",
"^.	c #D4C365",
"/.	c #DACB76",
"(.	c #DBCC74",
"_.	c #DBCB75",
":.	c #DACC75",
"<.	c #EEE7BC",
"[.	c #FAFAF1",
"}.	c #D4C162",
"|.	c #BFA10A",
"1.	c #C0A105",
"2.	c #BFA206",
"3.	c #C0A205",
"4.	c #C0A206",
"5.	c #C0A006",
"6.	c #DAC669",
"7.	c #F1ECCC",
"8.	c #F2ECCC",
"9.	c #F1ECCB",
"0.	c #F6F2DF",
"a.	c #C9AE28",
"b.	c #D5C45F",
"c.	c #D6C35E",
"d.	c #D6C35F",
"e.	c #D6C260",
"f.	c #C8AE28",
"g.	c #C1A309",
"h.	c #C3A209",
"i.	c #C2A209",
"j.	c #C3A208",
"k.	c #C2A308",
"l.	c #C3A60C",
"  . . + @ . . . # . $ + @ . . % ",
"& * = - ; > > - > > - > ; > , % ",
"' ) ! ~ { ] ^ / ~ ( ( ( ( ( _ % ",
": ) < [ } | 1 2 3 4 5 5 5 5 6 7 ",
"8 ) 9 0 a b c d e f g 5 5 5 6 7 ",
"' h i j k l m n o p q r r s t 7 ",
"u ) v w g x y z A B C D E F G 7 ",
"& h H I J K L M N O P Q R S G T ",
"u ) U V W X Y Z ` U  ...t S G 7 ",
"& ) +.@.#.$.%.&.! *.=.-.G S G ;.",
"u >.+.,.'.).!.~.{.{.].< ^.S G 7 ",
"& ) +.,.'.z /.(._.:.<.[.}.S G 7 ",
"u ) +.,.|.1.2.3.3.4.3.4.5.6.G 7 ",
"& ) +.k 7.7.8.8.7.7.8.7.9.0.G 7 ",
"u a.b.C c.d.e.C e.e.e.d.C d.f.% ",
"g.h.i.j.j.j.j.j.j.j.j.j.j.j.k.l."};
