/* XPM */
static char * outlook_xpm[] = {
"32 32 373 2",
"  	c #C0A208",
". 	c #C0A003",
"+ 	c #C2A004",
"@ 	c #C1A003",
"# 	c #C2A104",
"$ 	c #C1A004",
"% 	c #C2A006",
"& 	c #C2A106",
"* 	c #C1A006",
"= 	c #C1A005",
"- 	c #C4A60C",
"; 	c #C0A106",
"> 	c #BF9F01",
", 	c #C0A001",
"' 	c #C0A000",
") 	c #C1A102",
"! 	c #C0A002",
"~ 	c #C2A102",
"{ 	c #C1A101",
"] 	c #C1A001",
"^ 	c #C1A002",
"/ 	c #C2A40A",
"( 	c #C0A101",
"_ 	c #C1A104",
": 	c #BFA006",
"< 	c #BFA104",
"[ 	c #C0A004",
"} 	c #C09F06",
"| 	c #C0A005",
"1 	c #C09F04",
"2 	c #C19F06",
"3 	c #BEA204",
"4 	c #C2A002",
"5 	c #C2A50A",
"6 	c #C0A100",
"7 	c #E8DFA4",
"8 	c #EFECCB",
"9 	c #F2EDCB",
"0 	c #F3EDCC",
"a 	c #F2EDCC",
"b 	c #F2ECCC",
"c 	c #E2D9A0",
"d 	c #C1A204",
"e 	c #C2A509",
"f 	c #C0A206",
"g 	c #C0A200",
"h 	c #F3EDC5",
"i 	c #F9FEF7",
"j 	c #FCFCFE",
"k 	c #FDFCFE",
"l 	c #EAE5C8",
"m 	c #C0A103",
"n 	c #C0A104",
"o 	c #C4A60A",
"p 	c #F2ECC7",
"q 	c #FCFEFC",
"r 	c #FCFEFB",
"s 	c #FBFEF6",
"t 	c #F1EED6",
"u 	c #E0D796",
"v 	c #DBCC7C",
"w 	c #DECE7D",
"x 	c #E5DDA4",
"y 	c #F7F6E3",
"z 	c #FAFDFA",
"A 	c #FBFEFC",
"B 	c #FCFFFB",
"C 	c #FCFEFE",
"D 	c #EBE5C8",
"E 	c #C0A006",
"F 	c #C3A60A",
"G 	c #C0A207",
"H 	c #C0A201",
"I 	c #C19F03",
"J 	c #F2EDC6",
"K 	c #FCFDFC",
"L 	c #FDFDFC",
"M 	c #F5F4E0",
"N 	c #D0BD5D",
"O 	c #C0A00B",
"P 	c #C09F05",
"Q 	c #BFA004",
"R 	c #C1A514",
"S 	c #DED077",
"T 	c #FBFAEF",
"U 	c #FCFEFA",
"V 	c #FEFEFE",
"W 	c #ECE5C8",
"X 	c #F3EDC6",
"Y 	c #F2EFDB",
"Z 	c #C5AB2D",
"` 	c #BFA005",
" .	c #BEA007",
"..	c #C2AA18",
"+.	c #CAB53B",
"@.	c #CAB231",
"#.	c #C0A40F",
"$.	c #D0BE4C",
"%.	c #FBF8EC",
"&.	c #FEFEFD",
"*.	c #F8F9F0",
"=.	c #C6B13E",
"-.	c #C2A40E",
";.	c #E4D588",
">.	c #FAF9EB",
",.	c #FBFCF7",
"'.	c #FCFCF7",
").	c #F5F2DF",
"!.	c #D4C269",
"~.	c #DACA69",
"{.	c #FDFEFB",
"].	c #FEFDFB",
"^.	c #FEFDFC",
"/.	c #C4A609",
"(.	c #BFA000",
"_.	c #DED49C",
":.	c #C29F04",
"<.	c #C0A209",
"[.	c #EBE0A8",
"}.	c #F9FEF8",
"|.	c #DECD85",
"1.	c #CBAE2D",
"2.	c #E8E0A4",
"3.	c #FCFDF9",
"4.	c #FAFCF7",
"5.	c #D4C67E",
"6.	c #C0A30B",
"7.	c #F4EFC7",
"8.	c #FCFCFA",
"9.	c #F4EBC8",
"0.	c #FAFEFB",
"a.	c #C9B642",
"b.	c #C09E06",
"c.	c #D5C250",
"d.	c #FEFBF9",
"e.	c #D5C46A",
"f.	c #C2A003",
"g.	c #E6DA94",
"h.	c #FCFEF8",
"i.	c #FEFDF9",
"j.	c #F9F8EF",
"k.	c #C3A721",
"l.	c #E1CF79",
"m.	c #FDFDFA",
"n.	c #FDFEFA",
"o.	c #F5EBC8",
"p.	c #FCFCF8",
"q.	c #BEA31D",
"r.	c #E8DD9A",
"s.	c #D5C56C",
"t.	c #C59E05",
"u.	c #E5DC90",
"v.	c #FBFEF9",
"w.	c #FAFEF8",
"x.	c #FBFDF8",
"y.	c #D4BE68",
"z.	c #D4BE4C",
"A.	c #FDFDF9",
"B.	c #BFA106",
"C.	c #F4ECC7",
"D.	c #F9F9F2",
"E.	c #BDA017",
"F.	c #EDE5A9",
"G.	c #D4C56C",
"H.	c #BDA008",
"I.	c #CEB638",
"J.	c #D6C362",
"K.	c #DED07C",
"L.	c #D4C674",
"M.	c #CFB432",
"N.	c #EAE6BD",
"O.	c #ECE5BB",
"P.	c #ECE6BE",
"Q.	c #ECE7BD",
"R.	c #EBE6BD",
"S.	c #EAE4C8",
"T.	c #C09E02",
"U.	c #FBFDFC",
"V.	c #C1A625",
"W.	c #E4D786",
"X.	c #D5C46E",
"Y.	c #C09F00",
"Z.	c #C0A102",
"`.	c #CFB22F",
" +	c #F8FCFA",
".+	c #CDB854",
"++	c #C19E06",
"@+	c #C39E05",
"#+	c #F3EDD0",
"$+	c #E9E4C6",
"%+	c #C3A608",
"&+	c #C09F03",
"*+	c #F3ECC7",
"=+	c #D0BC5C",
"-+	c #BE9E07",
";+	c #CDB42F",
">+	c #FAFBEE",
",+	c #FDFEFC",
"'+	c #EDE7C3",
")+	c #E3DA9B",
"!+	c #E3DA9C",
"~+	c #E4D99A",
"{+	c #EAE0AC",
"]+	c #F2EED8",
"^+	c #C1A212",
"/+	c #BF9F04",
"(+	c #BDA006",
"_+	c #EAE5C6",
":+	c #C3A508",
"<+	c #E8E1BC",
"[+	c #C0A00A",
"}+	c #BEA008",
"|+	c #D9CB6D",
"1+	c #FCFCF4",
"2+	c #FCFCFC",
"3+	c #FCFDFA",
"4+	c #F5F4E5",
"5+	c #C8B344",
"6+	c #C09E08",
"7+	c #C5AA1C",
"8+	c #F2ECC2",
"9+	c #F3EECD",
"0+	c #F0EBC1",
"a+	c #F1EBBB",
"b+	c #EFEAC3",
"c+	c #E2D9A3",
"d+	c #C09F07",
"e+	c #C2A508",
"f+	c #F2ECC6",
"g+	c #FCFBF8",
"h+	c #D2C472",
"i+	c #C19E05",
"j+	c #C29F05",
"k+	c #CEBA44",
"l+	c #EAE2B2",
"m+	c #F6F3D9",
"n+	c #F2F0D3",
"o+	c #E2D89C",
"p+	c #C4AE2A",
"q+	c #C2A008",
"r+	c #E7E1A0",
"s+	c #FDFDFB",
"t+	c #D2C162",
"u+	c #BEA20D",
"v+	c #BEA10D",
"w+	c #D7C963",
"x+	c #EBE4CA",
"y+	c #C3A509",
"z+	c #FDFCF7",
"A+	c #FCFAF2",
"B+	c #D1C264",
"C+	c #C0A008",
"D+	c #BEA00A",
"E+	c #BFA008",
"F+	c #BFA30B",
"G+	c #E3DA91",
"H+	c #FAFDF9",
"I+	c #FCFEF9",
"J+	c #D4BF5C",
"K+	c #DBC65F",
"L+	c #EBE4C9",
"M+	c #F3ECD0",
"N+	c #EAE5C7",
"O+	c #FEFDFD",
"P+	c #F8F7F1",
"Q+	c #BFA30F",
"R+	c #C1A410",
"S+	c #D0BC4E",
"T+	c #F0EAC1",
"U+	c #FAFCF8",
"V+	c #D2BE5C",
"W+	c #D8C860",
"X+	c #E8E3C9",
"Y+	c #F8F7F4",
"Z+	c #BFA310",
"`+	c #E1D27E",
" @	c #EEEACA",
".@	c #F0ECCC",
"+@	c #F9F7E8",
"@@	c #FAFDFC",
"#@	c #F3F2DB",
"$@	c #F0ECD3",
"%@	c #EFEECF",
"&@	c #F4F4E0",
"*@	c #EAE4C7",
"=@	c #C29F03",
"-@	c #E7DA94",
";@	c #E8E2C0",
">@	c #D8C25E",
",@	c #D8C561",
"'@	c #D7C65E",
")@	c #D8C560",
"!@	c #D7C561",
"~@	c #D7C461",
"{@	c #D5C463",
"]@	c #D8C360",
"^@	c #DCD178",
"/@	c #FEFCF6",
"(@	c #FDFEF9",
"_@	c #E9E5C8",
":@	c #BFA002",
"<@	c #F8F8F4",
"[@	c #E6DA93",
"}@	c #DCD499",
"|@	c #BDA106",
"1@	c #CCB42A",
"2@	c #FDFEFE",
"3@	c #EAE6C8",
"4@	c #C0A310",
"5@	c #E6D996",
"6@	c #DDD49B",
"7@	c #BFA30E",
"8@	c #C0A30D",
"9@	c #C0A30C",
"0@	c #C0A40C",
"a@	c #CDB632",
"b@	c #F7F4E2",
"c@	c #F5F3E0",
"d@	c #F6F4DC",
"e@	c #F6F4DD",
"f@	c #F5F3DE",
"g@	c #F6F4DE",
"h@	c #F5F4DE",
"i@	c #F8F6E8",
"j@	c #F8F6E6",
"k@	c #F8F7E9",
"l@	c #E9DFB9",
"m@	c #BFA210",
"n@	c #C1A205",
"o@	c #C0A20C",
"p@	c #BEA30C",
"q@	c #C0A40A",
"r@	c #C0A30A",
"s@	c #C1A40A",
"t@	c #C1A20D",
"u@	c #BFA112",
"v@	c #F9F7F4",
"w@	c #BEA211",
"x@	c #BFA001",
"y@	c #F3EDCE",
"z@	c #FCFAF8",
"A@	c #E3DDA1",
"B@	c #E5D99E",
"C@	c #E4DA9D",
"D@	c #E4DA9B",
"E@	c #E5DA9B",
"F@	c #E5DA9A",
"G@	c #FAF6EC",
"H@	c #FEFEFC",
"I@	c #FEFCFA",
"J@	c #FEFDF7",
"K@	c #BFA102",
"L@	c #E4D895",
"M@	c #EBE7B9",
"N@	c #ECE6BB",
"O@	c #ECE6BC",
"P@	c #ECE7BA",
"Q@	c #ECE6BA",
"R@	c #ECE6B9",
"S@	c #DED492",
"T@	c #BDA204",
"U@	c #BF9F02",
"V@	c #BF9F03",
"W@	c #BFA105",
"X@	c #C2A202",
"Y@	c #C1A611",
"Z@	c #C2A50C",
"`@	c #C3A50D",
" #	c #C4A50D",
".#	c #C4A50C",
"+#	c #C3A40D",
"@#	c #C3A50C",
"##	c #C5AB16",
"  . + @ @ # + $ % & $ @ @ @ @ $ * & + @ # # @ = & % @ @ @ @ # - ",
"; > , ' , ) ) ! ~ { ) , , ) ) , ] { ^ , ] ) ) , ~ { ) , ^ ) ~ / ",
"; ( _ : < [ $ = } } | 1 [ [ [ [ 1 } [ [ 1 $ [ 2 } } [ [ 3 4 _ 5 ",
"; 6 [ 7 8 9 0 a a a a b 0 a 0 0 a a a a a 0 a a a a a 0 c | d e ",
"f g @ h i j k k k k k k k k k k k k k k k k k k k k k k l m n o ",
"; ( ! p q q q r s t u v w x y z A B C C C C C C C C C C D E . F ",
"G H I J q K L M N O ; [ P Q R S T U V V V V V V V V V V W E . o ",
"; ( ^ X q L Y Z `  ...+.@.#.. * $.%.q &.V V V V V V V V W E . F ",
"` 6 ^ X q *.=.} -.;.>.,.'.).!.% + ~.{.].^.V V V V V V V W E . /.",
"` (.^ X q _.:.<.[.}.|.1.2.3.4.5.= 6.7.8.U V V V V V V V W E . o ",
"f 6 , 9.0.a.b.c.d.^.e.f.g.h.i.j.k.; l.r m.q q q q q n.&.D | . o ",
"f 6 ! o.p.q.@ r.V V s.t.u.v.w.x.y.n z.A.n.U U U U U i.].l E . o ",
"B.6 ! C.D.E.1 F.&.V G.H.I.J.K.,.L.E M.N.O.P.Q.P.P.R.R.T S.E . o ",
": , T.p U.V.1 W.r i.X.' Y.Z.`. +.+f.[ | | Q | 1 ++@+$ #+$+P . %+",
"; , &+*+q =+-+;+>+,+'+)+!+~+{+]+^+f.[ | | /+| = (+d $ #+_+| @ :+",
"B.6 ^ p q <+[+}+|+1+2+3+3+4.4+5+6+7+8+9+0+a+a+b+c+d+[ #+_+E @ e+",
"` 6 ^ f+q g+h+i+j+k+l+m+n+o+p+++q+r+s+8.t+u+v+w+x+Q [ #+_+* . y+",
"B.' ^ f+q z+A+B+}+C+@ D+E+[ d+F+G+H+I+3+J+] ~ K+L+E &+M+N+E . o ",
"f 6 ^ X q O+V P+Q+1 < ` E+R+S+T+I+q h.U+V+! P W+X+[ [ #+_+E . e+",
"; 6 ^ f+q &.V Y+Z+. `+ @.@+@1+@@A @@m.v.#@$@%@&@*@=@$ #+_+E . y+",
": ' ^ f+q &.V Y+Z+[ -@;@>@,@'@)@!@~@{@]@^@/@(@r _@:@[ #+_+| . o ",
"; , , f+q &.V <@Z+[ [@}@|@! ! [ $ $ &+@ 1@(@q 2@3@:@$ #+_+* @ o ",
"; ( @ X q &.V Y+4@[ 5@6@7@8@8@9@9@6.0@6.a@8.U ,+3@:@$ #+_+E . o ",
"; 6 ^ X q &.V <@Z+:@;.b@c@d@d@e@f@g@h@h@d@i@j@k@l@[ &+#+_+| . /.",
": ' ^ X q &.V <@m@. n@o@p@q@r@s@s@s@q@q@q@s@s@t@u@1 &+#+_+* @ /.",
"; ' ^ X q &.V v@w@. , :@, x@(.( ' ( , ! , ' ( ! ^ :@. y@_+| . o ",
"f 6 ^ f+q &.V z@A@B@C@D@E@E@E@E@E@E@E@E@E@E@E@E@E@F@C@G@*@P @ o ",
"; 6 ^ X q &.V H@I@(@,+H@H@H@H@H@,+,+,+,+H@H@,+H@H@,+^.J@*@} . o ",
"` ' K@L@M@N@O@O@P@Q@N@O@O@O@O@O@O@O@O@O@O@O@O@O@O@O@R@Q@S@` [ F ",
"; 6 ~ : T@/+. [ &+U@. . &+&+. . V@&+&+&+&+&+U@. . . [ [ W@X@n F ",
"; 6 f.q+= + + + + + + + + + + + + + + + + + + + + + + + $ n [ F ",
"Y@Z@`@ #`@ #`@ # # # # # #.# # # #+# #@#@# #@# # #`@ #`@ # # ###"};
