/* XPM */
static char * powerpnt_xpm[] = {
"32 32 99 2",
"  	c #AC0204",
". 	c #D48284",
"+ 	c #A44A4C",
"@ 	c #ECC2C4",
"# 	c #B42224",
"$ 	c #946E6C",
"% 	c #A4A2A4",
"& 	c #CC4244",
"* 	c #BC3234",
"= 	c #ECA2A4",
"- 	c #FCE2E4",
"; 	c #C40204",
"> 	c #E4B6B4",
", 	c #CC6E6C",
"' 	c #DC9294",
") 	c #DC5654",
"! 	c #D43634",
"~ 	c #FCF2F4",
"{ 	c #D47274",
"] 	c #D42224",
"^ 	c #B45A5C",
"/ 	c #D40E0C",
"( 	c #B41214",
"_ 	c #F4D6D4",
": 	c #DC4A4C",
"< 	c #E4AAAC",
"[ 	c #ECBABC",
"} 	c #DC9A9C",
"| 	c #BC0204",
"1 	c #C44244",
"2 	c #BC2A2C",
"3 	c #C43E3C",
"4 	c #F4EAEC",
"5 	c #D47E7C",
"6 	c #B40A0C",
"7 	c #E48284",
"8 	c #BCBABC",
"9 	c #DC4244",
"0 	c #CC3234",
"a 	c #CC0A0C",
"b 	c #E46264",
"c 	c #E45E5C",
"d 	c #DC3E3C",
"e 	c #FCFAFC",
"f 	c #ECAAAC",
"g 	c #B40204",
"h 	c #ECCECC",
"i 	c #BC2224",
"j 	c #C43634",
"k 	c #CC0204",
"l 	c #F4B2B4",
"m 	c #EC9694",
"n 	c #D45E5C",
"o 	c #DC3634",
"p 	c #E47274",
"q 	c #D42A2C",
"r 	c #D41614",
"s 	c #FCDEDC",
"t 	c #F4BABC",
"u 	c #EC9E9C",
"v 	c #C44E4C",
"w 	c #FCEAEC",
"x 	c #E46A6C",
"y 	c #AC0604",
"z 	c #DC8E8C",
"A 	c #A44E4C",
"B 	c #B46264",
"C 	c #A4A6A4",
"D 	c #CC4644",
"E 	c #BC3634",
"F 	c #ECA6A4",
"G 	c #FCE6E4",
"H 	c #DC9694",
"I 	c #DC5A5C",
"J 	c #FCF6F4",
"K 	c #D42624",
"L 	c #C45254",
"M 	c #D41214",
"N 	c #F4DADC",
"O 	c #DC4E4C",
"P 	c #E4AEAC",
"Q 	c #E49A9C",
"R 	c #C44644",
"S 	c #BC2E2C",
"T 	c #E47E7C",
"U 	c #EC8E8C",
"V 	c #BCBEBC",
"W 	c #DC4644",
"X 	c #E46664",
"Y 	c #FCFEFC",
"Z 	c #ECAEAC",
"` 	c #F4CECC",
" .	c #BC2624",
"..	c #CC0604",
"+.	c #F4B6B4",
"@.	c #DC3A3C",
"#.	c #E47674",
"$.	c #F4BEBC",
"%.	c #FCEEEC",
"k k k k k k k k k k k k k k k k k k k k k k k k k k k k k k k k ",
"k k k k k k k k k k k k k k k k k k k k k k k k k k k k k k k k ",
"k k Y Y Y Y Y Y Y Y Y Y Y Y Y Y Y Y Y Y Y Y Y Y Y Y Y Y Y k k k ",
"k k Y Y Y Y Y Y Y Y Y Y Y Y Y Y Y Y Y Y Y Y Y Y Y Y Y Y Y k k k ",
"k k Y Y Y Y Y Y Y Y Y Y Y Y Y Y Y Y Y Y Y Y Y Y Y Y Y Y Y k k k ",
"k k Y Y Y T : : : : : : : : : : : : : : : : : : : : Y Y Y k k k ",
"k k Y Y Y : k k k k k k k k k k k k k k k k k k k k Y Y Y k k k ",
"k k Y Y Y : k k k k k k k k k k k k k k k k k k k k Y Y Y k k k ",
"k k Y Y Y : k Y Y Y Y Y Y Y Y Y Y Y Y Y Y Y Y Y k k Y Y Y k k k ",
"k k Y Y Y : k Y Y Y Y Y Y Y Y Y Y Y Y Y Y Y Y Y k k Y Y Y k k k ",
"k k Y Y Y : k Y Y Y Y Y Y Y Y Y Y Y Y Y Y Y Y Y k k Y Y Y k k k ",
"k k Y Y Y : k k k k k k k k k k k k k k k k k k k k Y Y Y k k k ",
"k k Y Y Y : k k k k k k k k k k k k k k k k k k k k Y Y Y k k k ",
"k k Y Y Y : k k k k k k k k k k k Y c Y Y Y Y Y k k Y Y Y k k k ",
"k k Y Y Y : k k k k k k k k k k k   k           k k Y Y Y k k k ",
"k k Y Y Y : k k k Y Y k k k k k k k k k k k k k k k Y Y Y k k k ",
"k k Y Y Y : k k Y Y Y k k k k k k Y c Y Y Y Y Y k k Y Y Y k k k ",
"k k Y Y Y : k Y Y Y Y k k k k k k k k k k k k k k k Y Y Y k k k ",
"k k Y Y Y : k Y Y Y Y k k k k k k Y c Y Y Y Y Y k k Y Y Y k k k ",
"k k Y Y Y : k Y Y Y Y Y Y Y h k k k k k k k k k k k Y Y Y k k k ",
"k k Y Y Y : k e Y Y Y Y Y Y   k k k k k k k k k k k Y Y Y k k k ",
"k k Y Y Y : k k Y Y Y Y Y Y k k k k k k k k k k k k Y Y Y k k k ",
"k k Y Y Y : k k k 5 Y Y   k k k k k k k k k k k k k Y Y Y k k k ",
"k k Y Y Y : k k k k k k k k k k k k k k k k k k k k Y Y Y k k k ",
"k k Y Y Y : k k k k k k k k k k k k k k k k k k k k Y Y Y k k k ",
"k k Y Y Y : k k k k k k k k k k k k k k k k k k k k Y Y Y k k k ",
"k k Y Y Y Y Y Y Y Y Y Y Y Y Y Y Y Y Y Y Y Y Y Y Y Y Y Y Y k k k ",
"k k Y Y Y Y Y Y Y Y Y Y Y Y Y Y Y Y Y Y Y Y Y Y Y Y Y Y Y k k k ",
"k k Y Y Y Y Y Y Y Y Y Y Y Y Y Y Y Y Y Y Y Y Y Y Y Y Y Y Y k k k ",
"k k k k k k k k k k k k k k k k k k k k k k k k k k k k k k k k ",
"k k k k k k k k k k k k k k k k k k k k k k k k k k k k k k k k ",
"k k k k k k k k k k k k k k k k k k k k k k k k k k k k k k k k "};
