/* XPM */
static char * word_xpm[] = {
"32 32 246 2",
"  	c #F6E7D4",
". 	c #849CCD",
"+ 	c #D9B21A",
"@ 	c #EC924B",
"# 	c #CACAC9",
"$ 	c #2C2475",
"% 	c #84BA34",
"& 	c #EDBE00",
"* 	c #8CC338",
"= 	c #CBA821",
"- 	c #EB8A44",
"; 	c #92C73B",
"> 	c #B4B2AF",
", 	c #926124",
"' 	c #959168",
") 	c #EF9A54",
"! 	c #908F8E",
"~ 	c #78A62F",
"{ 	c #CBCFB6",
"] 	c #5E6225",
"^ 	c #0E1111",
"/ 	c #EE9650",
"( 	c #9ECF49",
"_ 	c #6A6B6F",
": 	c #728EC3",
"< 	c #6176B0",
"[ 	c #E5B59B",
"} 	c #7995C7",
"| 	c #F5D1B5",
"1 	c #D3D3CF",
"2 	c #4A4D4F",
"3 	c #F3C704",
"4 	c #6583BA",
"5 	c #729C2F",
"6 	c #6986BE",
"7 	c #9793BC",
"8 	c #AAA7CB",
"9 	c #ECC308",
"0 	c #897059",
"a 	c #E5BC12",
"b 	c #D3D5E7",
"c 	c #2B2D2F",
"d 	c #95C741",
"e 	c #EF9E59",
"f 	c #566CA9",
"g 	c #F0DAC8",
"h 	c #F3CB09",
"i 	c #9ACB45",
"j 	c #CD6335",
"k 	c #F0A25B",
"l 	c #D8733C",
"m 	c #96CB42",
"n 	c #E68C4B",
"o 	c #F5AC74",
"p 	c #DD7B42",
"q 	c #6C8ABE",
"r 	c #4F5664",
"s 	c #D26B39",
"t 	c #FCE15E",
"u 	c #DD8247",
"v 	c #88BE34",
"w 	c #6D8AC3",
"x 	c #BD9C26",
"y 	c #F3F3EF",
"z 	c #799754",
"A 	c #FAEAB6",
"B 	c #82B531",
"C 	c #F3CB03",
"D 	c #F3C709",
"E 	c #3D4555",
"F 	c #AF8D07",
"G 	c #AEA898",
"H 	c #6D734A",
"I 	c #EB8641",
"J 	c #FAC394",
"K 	c #211974",
"L 	c #C7C8DC",
"M 	c #C3A024",
"N 	c #BEC5A4",
"O 	c #DDE9CA",
"P 	c #504A8E",
"Q 	c #72767B",
"R 	c #51658F",
"S 	c #8ABE38",
"T 	c #F5D231",
"U 	c #7289BE",
"V 	c #EB8E48",
"W 	c #EBEBE7",
"X 	c #7D96CB",
"Y 	c #DBDBD7",
"Z 	c #5C6167",
"` 	c #837EAF",
" .	c #76523E",
"..	c #FBEEDB",
"+.	c #A69889",
"@.	c #D3E5B2",
"#.	c #7592C7",
"$.	c #EB9A68",
"%.	c #7D9ACB",
"&.	c #C55B31",
"*.	c #84B829",
"=.	c #D4CAC1",
"-.	c #EBEBF4",
";.	c #E38244",
">.	c #FDEC86",
",.	c #A3D648",
"'.	c #FCFBF5",
").	c #ABCD74",
"!.	c #E5E5EF",
"~.	c #1C136D",
"{.	c #FCCE02",
"].	c #BEC0C4",
"^.	c #57634F",
"/.	c #F48C42",
"(.	c #F79E53",
"_.	c #E38649",
":.	c #C79F01",
"<.	c #D6BA51",
"[.	c #4B3D65",
"}.	c #F7F7FB",
"|.	c #F5944A",
"1.	c #DDE2ED",
"2.	c #C57439",
"3.	c #E7823C",
"4.	c #8CA2CF",
"5.	c #F4CD16",
"6.	c #393C3F",
"7.	c #C6DAA4",
"8.	c #7D5165",
"9.	c #9A9D93",
"0.	c #FFFFFF",
"a.	c #6C3D24",
"b.	c #C1BDCF",
"c.	c #A0A2A4",
"d.	c #ECE7E1",
"e.	c #CED2D5",
"f.	c #423986",
"g.	c #FED303",
"h.	c #E48C54",
"i.	c #9DD341",
"j.	c #36307F",
"k.	c #818280",
"l.	c #E27A37",
"m.	c #D6D7DB",
"n.	c #BD682E",
"o.	c #DED6D0",
"p.	c #EEC614",
"q.	c #FCF7F3",
"r.	c #8F7E3A",
"s.	c #C9E0A3",
"t.	c #D7DBDD",
"u.	c #9BC25A",
"v.	c #E08E67",
"w.	c #E2BC24",
"x.	c #CDD6C1",
"y.	c #E68A44",
"z.	c #7492CB",
"A.	c #7DAE31",
"B.	c #894421",
"C.	c #6D82B8",
"D.	c #F7FBFC",
"E.	c #5F7E2A",
"F.	c #8BC22B",
"G.	c #9A7C0B",
"H.	c #F9D21D",
"I.	c #F9CF08",
"J.	c #EFF3F3",
"K.	c #647DB6",
"L.	c #D7DCCD",
"M.	c #55791A",
"N.	c #E0DFEA",
"O.	c #6C64A1",
"P.	c #86B040",
"Q.	c #202324",
"R.	c #E7ECDE",
"S.	c #44571F",
"T.	c #F7FBF6",
"U.	c #EB9256",
"V.	c #658F25",
"W.	c #E7EBEC",
"X.	c #E39451",
"Y.	c #171A1B",
"Z.	c #E6925C",
"`.	c #8AB541",
" +	c #94CC30",
".+	c #3E517B",
"++	c #F4F8D9",
"@+	c #EFC300",
"#+	c #697EAA",
"$+	c #D86B30",
"%+	c #7C90BF",
"&+	c #D3D3D3",
"*+	c #495F9D",
"=+	c #FBFBFB",
"-+	c #F7F7F7",
";+	c #F3F3F3",
">+	c #D7D7D7",
",+	c #E7E7E7",
"'+	c #DBDBDB",
")+	c #DFDFDF",
"!+	c #EBEBEB",
"~+	c #E3E3E2",
"{+	c #EFEFEF",
"]+	c #EFC705",
"^+	c #D7D7D3",
"/+	c #EFC304",
"(+	c #EFC700",
"_+	c #E7E7E3",
":+	c #DFDFDB",
"<+	c #F7F7F3",
"[+	c #EFEFEB",
"}+	c #FFFFFA",
"|+	c #FBFBFF",
"1+	c #E8E2E1",
"2+	c #F3F3F7",
"3+	c #F2EFF7",
"4+	c #DBDBE3",
"5+	c #EBC304",
"6+	c #E3E3E7",
"7+	c #EBEAF0",
"8+	c #90BD40",
"9+	c #FFFBFA",
"0+	c #D3D3D8",
"a+	c #FBFFFF",
"b+	c #EFEBE9",
"c+	c #EBEFEF",
"d+	c #DBDFE0",
"e+	c #F8F3F2",
"f+	c #FFFBFF",
"g+	c #D8D3D0",
"h+	c #A29EC3",
"i+	c #D2D7D8",
"j+	c #E2DBD5",
"k+	c #E3E7E8",
"l+	c #F7C700",
"m+	c #F3F7F8",
"n+	c #FBFFFB",
"o+	c #DBD7DB",
"p+	c #FBF7FB",
"q+	c #EFEBF1",
"r+	c #DFDBE0",
"s+	c #E7E3E7",
"t+	c #EBEFE8",
"u+	c #98C647",
"v+	c #7D9AD0",
"w+	c #F7F3FA",
"$ $ $ $ $ $ $ $ $ $ $ $ $ $ $ $ $ $ $ $ $ $ $ $ $ $ $ $ $ $ $ $ ",
"$ $ $ $ $ $ $ $ $ $ $ $ $ $ $ $ $ $ $ $ $ $ $ $ $ $ $ $ $ $ $ $ ",
"$ K 0.0.0.0.0.0.0.0.0.0.0.0.0.0.0.0.0.0.0.0.0.0.0.0.0.0.0.0.$ $ ",
"$ K 0.0.0.0.0.0.0.0.0.0.0.0.0.0.0.0.0.0.0.0.0.0.0.0.0.0.0.0.$ $ ",
"$ K 0.0.0.0.0.0.0.0.0.0.0.0.0.0.0.0.0.0.0.0.0.0.0.0.0.0.0.0.$ $ ",
"$ K 0.0.0.0.0.0.0.0.0.0.0.0.0.0.0.0.0.0.0.0.0.0.0.0.0.0.0.0.$ $ ",
"$ K 0.0.0.0.0.0.0.0.0.0.0.0.0.0.0.0.0.0.0.0.0.0.0.0.0.0.0.0.$ $ ",
"$ K 0.~.$ $ $ $ $ $ $ $ 0.0.N.$ $ $ $ $ $ 7 0.$ $ $ $ $ $ $ $ $ ",
"$ K 0.~.$ $ $ $ $ $ $ $ 0.0.$ $ $ $ $ $ $ 7 0.$ $ $ $ $ $ $ $ $ ",
"$ K 0.~.$ $ $ $ $ $ $ $ 0.` $ $ $ $ $ $ $ 7 0.$ $ $ $ $ $ $ $ $ ",
"$ K 0.0.0.$ $ $ $ $ 0.0.0.$ $ $ $ $ $ $ $ 7 0.0.O.$ $ $ 0.0.$ $ ",
"$ K 0.0.0.$ $ $ $ $ 0.0.` $ $ $ $ $ $ $ $ 7 0.0.$ $ $ 0.0.0.$ $ ",
"$ K 0.0.0.$ $ $ $ $ 0.0.$ $ $ $ $ $ $ $ $ 7 0.` $ $ $ 0.0.0.$ $ ",
"$ K 0.0.0.$ $ $ $ $ 0.O.$ $ $ $ $ $ $ $ $ 7 0.$ $ $ j.0.0.0.$ $ ",
"$ K 0.0.0.$ $ $ $ $ 0.$ $ $ $ $ $ $ $ $ $ 7 h+$ $ $ 0.0.0.0.$ $ ",
"$ K 0.0.0.$ $ $ $ $ O.$ $ $ $ $ $ $ $ $ $ 7 $ $ $ $ 0.0.0.0.$ $ ",
"$ K 0.0.0.$ $ $ $ $ $ $ $ $ $ $ $ $ $ $ $ O.$ $ $ 7 0.0.0.0.$ $ ",
"$ K 0.0.0.$ $ $ $ $ $ $ $ $ $ $ $ $ $ $ $ $ $ $ $ 0.0.0.0.0.$ $ ",
"$ K 0.0.0.$ $ $ $ $ $ $ $ $ $ $ $ $ $ $ $ $ $ $ K 0.0.0.0.0.$ $ ",
"$ K 0.0.0.$ $ $ $ $ $ $ $ $ $ $ $ $ $ $ $ $ $ $ 0.0.0.0.0.0.$ $ ",
"$ K 0.0.0.$ $ $ $ $ $ $ $ $ $ $ $ $ $ $ $ $ $ $ 0.0.0.0.0.0.$ $ ",
"$ K 0.0.0.$ $ $ $ $ $ $ $ $ $ $ $ $ $ $ $ $ $ ` 0.0.0.0.0.0.$ $ ",
"$ K 0.0.0.$ $ $ $ $ $ $ $ $ 0.$ $ $ $ $ $ $ $ 0.0.0.0.0.0.0.$ $ ",
"$ K 0.0.0.$ $ $ $ $ $ $ $ j.0.$ $ $ $ $ $ $ K 0.0.0.0.0.0.0.$ $ ",
"$ K 0.0.0.$ $ $ $ $ $ $ $ 0.0.$ $ $ $ $ $ $ 0.0.0.0.0.0.0.0.$ $ ",
"$ K 0.0.0.$ $ $ $ $ $ $ 0.0.0.$ $ $ $ $ $ $ 0.0.0.0.0.0.0.0.$ $ ",
"$ K 0.0.0.b b b b b b b 0.0.0.b b b b b b 7+0.0.0.0.0.0.0.0.$ $ ",
"$ K 0.0.0.0.0.0.0.0.0.0.0.0.0.0.0.0.0.0.0.0.0.0.0.0.0.0.0.0.$ $ ",
"$ K 0.0.0.0.0.0.0.0.0.0.0.0.0.0.0.0.0.0.0.0.0.0.0.0.0.0.0.0.$ $ ",
"$ K }.}.}.}.}.}.}.}.}.}.}.}.}.}.}.}.}.}.}.}.}.}.}.}.}.}.}.0.$ $ ",
"$ $ $ $ $ $ $ $ $ $ $ $ $ $ $ $ $ $ $ $ $ $ $ $ $ $ $ $ $ $ $ $ ",
"$ $ $ $ $ $ $ $ $ $ $ $ $ $ $ $ $ $ $ $ $ $ $ $ $ $ $ $ $ $ $ $ "};
